<mxfile host="Electron" modified="2025-03-17T14:38:04.102Z" agent="Mozilla/5.0 (Windows NT 10.0; Win64; x64) AppleWebKit/537.36 (KHTML, like Gecko) draw.io/24.1.0 Chrome/120.0.6099.109 Electron/28.1.0 Safari/537.36" etag="5s718ev9FNhHvpazp7HL" version="24.1.0" type="device">
  <diagram name="Page-1" id="UIqrwREDrQ93q56bij_O">
    <mxGraphModel dx="482" dy="270" grid="1" gridSize="10" guides="1" tooltips="1" connect="1" arrows="1" fold="1" page="1" pageScale="1" pageWidth="1654" pageHeight="1169" math="0" shadow="0">
      <root>
        <mxCell id="0" />
        <mxCell id="1" parent="0" />
        <mxCell id="ZGMD3YCJVSqUdgtJMxU0-237" value="" style="edgeStyle=orthogonalEdgeStyle;rounded=0;orthogonalLoop=1;jettySize=auto;html=1;fillColor=#dae8fc;strokeColor=#6c8ebf;strokeWidth=2;jumpStyle=gap;endArrow=none;endFill=0;" parent="1" source="ZGMD3YCJVSqUdgtJMxU0-40" edge="1">
          <mxGeometry relative="1" as="geometry">
            <mxPoint x="1100" y="655" as="targetPoint" />
            <mxPoint x="720" y="655" as="sourcePoint" />
            <Array as="points">
              <mxPoint x="1150" y="655" />
            </Array>
          </mxGeometry>
        </mxCell>
        <mxCell id="ZGMD3YCJVSqUdgtJMxU0-273" value="" style="edgeStyle=orthogonalEdgeStyle;rounded=0;orthogonalLoop=1;jettySize=auto;html=1;entryX=0;entryY=0.5;entryDx=0;entryDy=0;exitX=1;exitY=0.5;exitDx=0;exitDy=0;endArrow=none;endFill=0;jumpStyle=gap;" parent="1" source="ZGMD3YCJVSqUdgtJMxU0-76" target="ZGMD3YCJVSqUdgtJMxU0-272" edge="1">
          <mxGeometry relative="1" as="geometry">
            <mxPoint x="1480" y="290" as="sourcePoint" />
            <mxPoint x="2600" y="390" as="targetPoint" />
            <Array as="points" />
          </mxGeometry>
        </mxCell>
        <mxCell id="ZGMD3YCJVSqUdgtJMxU0-282" style="edgeStyle=orthogonalEdgeStyle;rounded=0;orthogonalLoop=1;jettySize=auto;html=1;entryX=0;entryY=0.5;entryDx=0;entryDy=0;jumpStyle=gap;exitX=1;exitY=0.5;exitDx=0;exitDy=0;exitPerimeter=0;endArrow=none;endFill=0;" parent="1" source="ZGMD3YCJVSqUdgtJMxU0-290" target="ZGMD3YCJVSqUdgtJMxU0-125" edge="1">
          <mxGeometry relative="1" as="geometry">
            <mxPoint x="2050.0000000000005" y="875" as="targetPoint" />
            <Array as="points">
              <mxPoint x="1250" y="909" />
            </Array>
          </mxGeometry>
        </mxCell>
        <mxCell id="ZGMD3YCJVSqUdgtJMxU0-270" value="" style="edgeStyle=orthogonalEdgeStyle;rounded=0;orthogonalLoop=1;jettySize=auto;html=1;endArrow=none;endFill=0;fillColor=#d5e8d4;strokeColor=#82b366;strokeWidth=2;entryX=0.5;entryY=1;entryDx=0;entryDy=0;" parent="1" source="C50ntAI8cyt6T5EpAr7G-12" target="ZGMD3YCJVSqUdgtJMxU0-267" edge="1">
          <mxGeometry relative="1" as="geometry">
            <mxPoint x="715" y="454.9985714285714" as="sourcePoint" />
            <mxPoint x="1126" y="399.97" as="targetPoint" />
            <Array as="points">
              <mxPoint x="1126" y="455" />
            </Array>
          </mxGeometry>
        </mxCell>
        <mxCell id="ZGMD3YCJVSqUdgtJMxU0-5" value="" style="endArrow=classic;html=1;rounded=0;" parent="1" edge="1">
          <mxGeometry width="50" height="50" relative="1" as="geometry">
            <mxPoint x="580" y="455" as="sourcePoint" />
            <mxPoint x="700" y="455" as="targetPoint" />
          </mxGeometry>
        </mxCell>
        <mxCell id="ZGMD3YCJVSqUdgtJMxU0-6" value="inst[15]" style="edgeLabel;html=1;align=center;verticalAlign=middle;resizable=0;points=[];" parent="ZGMD3YCJVSqUdgtJMxU0-5" vertex="1" connectable="0">
          <mxGeometry x="-0.05" y="-2" relative="1" as="geometry">
            <mxPoint x="-17" y="-12" as="offset" />
          </mxGeometry>
        </mxCell>
        <mxCell id="ZGMD3YCJVSqUdgtJMxU0-24" value="" style="endArrow=classic;html=1;rounded=0;" parent="1" edge="1">
          <mxGeometry width="50" height="50" relative="1" as="geometry">
            <mxPoint x="580" y="474.71" as="sourcePoint" />
            <mxPoint x="700" y="474.71" as="targetPoint" />
          </mxGeometry>
        </mxCell>
        <mxCell id="ZGMD3YCJVSqUdgtJMxU0-25" value="inst[14]" style="edgeLabel;html=1;align=center;verticalAlign=middle;resizable=0;points=[];" parent="ZGMD3YCJVSqUdgtJMxU0-24" vertex="1" connectable="0">
          <mxGeometry x="-0.05" y="-2" relative="1" as="geometry">
            <mxPoint x="-17" y="-12" as="offset" />
          </mxGeometry>
        </mxCell>
        <mxCell id="ZGMD3YCJVSqUdgtJMxU0-26" value="" style="endArrow=classic;html=1;rounded=0;" parent="1" edge="1">
          <mxGeometry width="50" height="50" relative="1" as="geometry">
            <mxPoint x="580" y="494.71" as="sourcePoint" />
            <mxPoint x="700" y="494.71" as="targetPoint" />
          </mxGeometry>
        </mxCell>
        <mxCell id="ZGMD3YCJVSqUdgtJMxU0-27" value="inst[13]" style="edgeLabel;html=1;align=center;verticalAlign=middle;resizable=0;points=[];" parent="ZGMD3YCJVSqUdgtJMxU0-26" vertex="1" connectable="0">
          <mxGeometry x="-0.05" y="-2" relative="1" as="geometry">
            <mxPoint x="-17" y="-12" as="offset" />
          </mxGeometry>
        </mxCell>
        <mxCell id="ZGMD3YCJVSqUdgtJMxU0-77" style="edgeStyle=orthogonalEdgeStyle;rounded=0;orthogonalLoop=1;jettySize=auto;html=1;entryX=0;entryY=0.5;entryDx=0;entryDy=0;endArrow=none;endFill=0;fillColor=#d5e8d4;strokeColor=#82b366;strokeWidth=2;exitX=1;exitY=0.5;exitDx=0;exitDy=0;" parent="1" source="ZGMD3YCJVSqUdgtJMxU0-267" target="C50ntAI8cyt6T5EpAr7G-1" edge="1">
          <mxGeometry relative="1" as="geometry">
            <mxPoint x="800.0000000000001" y="455" as="targetPoint" />
            <Array as="points">
              <mxPoint x="1150" y="398" />
            </Array>
          </mxGeometry>
        </mxCell>
        <mxCell id="ZGMD3YCJVSqUdgtJMxU0-28" value="" style="whiteSpace=wrap;html=1;aspect=fixed;" parent="1" vertex="1">
          <mxGeometry x="700" y="445" width="20" height="20" as="geometry" />
        </mxCell>
        <mxCell id="ZGMD3YCJVSqUdgtJMxU0-262" style="edgeStyle=orthogonalEdgeStyle;rounded=0;orthogonalLoop=1;jettySize=auto;html=1;entryX=0;entryY=0.25;entryDx=0;entryDy=0;endArrow=none;endFill=0;jumpStyle=gap;" parent="1" source="ZGMD3YCJVSqUdgtJMxU0-295" target="ZGMD3YCJVSqUdgtJMxU0-216" edge="1">
          <mxGeometry relative="1" as="geometry">
            <Array as="points" />
          </mxGeometry>
        </mxCell>
        <mxCell id="ZGMD3YCJVSqUdgtJMxU0-29" value="" style="whiteSpace=wrap;html=1;aspect=fixed;" parent="1" vertex="1">
          <mxGeometry x="700" y="465" width="20" height="20" as="geometry" />
        </mxCell>
        <mxCell id="ZGMD3YCJVSqUdgtJMxU0-261" style="edgeStyle=orthogonalEdgeStyle;rounded=0;orthogonalLoop=1;jettySize=auto;html=1;exitX=1;exitY=0.5;exitDx=0;exitDy=0;entryX=0;entryY=0.25;entryDx=0;entryDy=0;endArrow=none;endFill=0;jumpStyle=gap;" parent="1" source="ZGMD3YCJVSqUdgtJMxU0-295" target="ZGMD3YCJVSqUdgtJMxU0-216" edge="1">
          <mxGeometry relative="1" as="geometry">
            <mxPoint x="850" y="495" as="targetPoint" />
            <Array as="points">
              <mxPoint x="850" y="280" />
            </Array>
          </mxGeometry>
        </mxCell>
        <mxCell id="ZGMD3YCJVSqUdgtJMxU0-30" value="" style="whiteSpace=wrap;html=1;aspect=fixed;" parent="1" vertex="1">
          <mxGeometry x="700" y="485" width="20" height="20" as="geometry" />
        </mxCell>
        <mxCell id="ZGMD3YCJVSqUdgtJMxU0-31" value="" style="endArrow=classic;html=1;rounded=0;" parent="1" edge="1">
          <mxGeometry width="50" height="50" relative="1" as="geometry">
            <mxPoint x="580" y="515" as="sourcePoint" />
            <mxPoint x="700" y="515" as="targetPoint" />
          </mxGeometry>
        </mxCell>
        <mxCell id="ZGMD3YCJVSqUdgtJMxU0-32" value="inst[12]" style="edgeLabel;html=1;align=center;verticalAlign=middle;resizable=0;points=[];" parent="ZGMD3YCJVSqUdgtJMxU0-31" vertex="1" connectable="0">
          <mxGeometry x="-0.05" y="-2" relative="1" as="geometry">
            <mxPoint x="-17" y="-12" as="offset" />
          </mxGeometry>
        </mxCell>
        <mxCell id="ZGMD3YCJVSqUdgtJMxU0-107" style="edgeStyle=orthogonalEdgeStyle;rounded=0;orthogonalLoop=1;jettySize=auto;html=1;entryX=0.5;entryY=1;entryDx=0;entryDy=0;fillColor=#f8cecc;strokeColor=#b85450;strokeWidth=2;endArrow=none;endFill=0;" parent="1" source="ZGMD3YCJVSqUdgtJMxU0-257" target="ZGMD3YCJVSqUdgtJMxU0-95" edge="1">
          <mxGeometry relative="1" as="geometry">
            <Array as="points">
              <mxPoint x="1670" y="515" />
              <mxPoint x="1670" y="410" />
            </Array>
          </mxGeometry>
        </mxCell>
        <mxCell id="ZGMD3YCJVSqUdgtJMxU0-33" value="" style="whiteSpace=wrap;html=1;aspect=fixed;" parent="1" vertex="1">
          <mxGeometry x="700" y="505" width="20" height="20" as="geometry" />
        </mxCell>
        <mxCell id="ZGMD3YCJVSqUdgtJMxU0-169" style="edgeStyle=orthogonalEdgeStyle;rounded=0;orthogonalLoop=1;jettySize=auto;html=1;entryX=0;entryY=0.5;entryDx=0;entryDy=0;fillColor=#ffe6cc;strokeColor=#d79b00;strokeWidth=2;endArrow=none;endFill=0;" parent="1" source="ZGMD3YCJVSqUdgtJMxU0-254" target="ZGMD3YCJVSqUdgtJMxU0-110" edge="1">
          <mxGeometry relative="1" as="geometry">
            <Array as="points">
              <mxPoint x="1690" y="535" />
              <mxPoint x="1690" y="510" />
            </Array>
          </mxGeometry>
        </mxCell>
        <mxCell id="ZGMD3YCJVSqUdgtJMxU0-34" value="" style="whiteSpace=wrap;html=1;aspect=fixed;" parent="1" vertex="1">
          <mxGeometry x="700" y="525" width="20" height="20" as="geometry" />
        </mxCell>
        <mxCell id="ZGMD3YCJVSqUdgtJMxU0-170" style="edgeStyle=orthogonalEdgeStyle;rounded=0;orthogonalLoop=1;jettySize=auto;html=1;entryX=0;entryY=0.5;entryDx=0;entryDy=0;fillColor=#ffe6cc;strokeColor=#d79b00;strokeWidth=2;endArrow=none;endFill=0;" parent="1" source="ZGMD3YCJVSqUdgtJMxU0-251" target="ZGMD3YCJVSqUdgtJMxU0-111" edge="1">
          <mxGeometry relative="1" as="geometry">
            <Array as="points">
              <mxPoint x="1710" y="555" />
              <mxPoint x="1710" y="540" />
            </Array>
          </mxGeometry>
        </mxCell>
        <mxCell id="ZGMD3YCJVSqUdgtJMxU0-35" value="" style="whiteSpace=wrap;html=1;aspect=fixed;" parent="1" vertex="1">
          <mxGeometry x="700" y="545" width="20" height="20" as="geometry" />
        </mxCell>
        <mxCell id="ZGMD3YCJVSqUdgtJMxU0-171" style="edgeStyle=orthogonalEdgeStyle;rounded=0;orthogonalLoop=1;jettySize=auto;html=1;entryX=0;entryY=0.5;entryDx=0;entryDy=0;fillColor=#ffe6cc;strokeColor=#d79b00;strokeWidth=2;endArrow=none;endFill=0;" parent="1" source="ZGMD3YCJVSqUdgtJMxU0-248" target="ZGMD3YCJVSqUdgtJMxU0-112" edge="1">
          <mxGeometry relative="1" as="geometry">
            <Array as="points">
              <mxPoint x="1730" y="575" />
              <mxPoint x="1730" y="570" />
            </Array>
          </mxGeometry>
        </mxCell>
        <mxCell id="ZGMD3YCJVSqUdgtJMxU0-36" value="" style="whiteSpace=wrap;html=1;aspect=fixed;" parent="1" vertex="1">
          <mxGeometry x="700" y="565" width="20" height="20" as="geometry" />
        </mxCell>
        <mxCell id="ZGMD3YCJVSqUdgtJMxU0-172" style="edgeStyle=orthogonalEdgeStyle;rounded=0;orthogonalLoop=1;jettySize=auto;html=1;entryX=0;entryY=0.5;entryDx=0;entryDy=0;fillColor=#ffe6cc;strokeColor=#d79b00;endSize=6;strokeWidth=2;endArrow=none;endFill=0;" parent="1" source="ZGMD3YCJVSqUdgtJMxU0-245" target="ZGMD3YCJVSqUdgtJMxU0-113" edge="1">
          <mxGeometry relative="1" as="geometry">
            <Array as="points">
              <mxPoint x="1730" y="595" />
              <mxPoint x="1730" y="600" />
            </Array>
          </mxGeometry>
        </mxCell>
        <mxCell id="ZGMD3YCJVSqUdgtJMxU0-37" value="" style="whiteSpace=wrap;html=1;aspect=fixed;" parent="1" vertex="1">
          <mxGeometry x="700" y="585" width="20" height="20" as="geometry" />
        </mxCell>
        <mxCell id="ZGMD3YCJVSqUdgtJMxU0-173" style="edgeStyle=orthogonalEdgeStyle;rounded=0;orthogonalLoop=1;jettySize=auto;html=1;entryX=0;entryY=0.5;entryDx=0;entryDy=0;strokeWidth=2;fillColor=#ffe6cc;strokeColor=#d79b00;endArrow=none;endFill=0;" parent="1" source="ZGMD3YCJVSqUdgtJMxU0-242" target="ZGMD3YCJVSqUdgtJMxU0-114" edge="1">
          <mxGeometry relative="1" as="geometry">
            <Array as="points">
              <mxPoint x="1710" y="615" />
              <mxPoint x="1710" y="630" />
            </Array>
          </mxGeometry>
        </mxCell>
        <mxCell id="ZGMD3YCJVSqUdgtJMxU0-38" value="" style="whiteSpace=wrap;html=1;aspect=fixed;" parent="1" vertex="1">
          <mxGeometry x="700" y="605" width="20" height="20" as="geometry" />
        </mxCell>
        <mxCell id="ZGMD3YCJVSqUdgtJMxU0-174" style="edgeStyle=orthogonalEdgeStyle;rounded=0;orthogonalLoop=1;jettySize=auto;html=1;entryX=0;entryY=0.5;entryDx=0;entryDy=0;fillColor=#ffe6cc;strokeColor=#d79b00;strokeWidth=2;endArrow=none;endFill=0;" parent="1" source="ZGMD3YCJVSqUdgtJMxU0-239" target="ZGMD3YCJVSqUdgtJMxU0-115" edge="1">
          <mxGeometry relative="1" as="geometry">
            <Array as="points">
              <mxPoint x="1690" y="635" />
              <mxPoint x="1690" y="660" />
            </Array>
          </mxGeometry>
        </mxCell>
        <mxCell id="ZGMD3YCJVSqUdgtJMxU0-39" value="" style="whiteSpace=wrap;html=1;aspect=fixed;" parent="1" vertex="1">
          <mxGeometry x="700" y="625" width="20" height="20" as="geometry" />
        </mxCell>
        <mxCell id="ZGMD3YCJVSqUdgtJMxU0-176" style="edgeStyle=orthogonalEdgeStyle;rounded=0;orthogonalLoop=1;jettySize=auto;html=1;fillColor=#dae8fc;strokeColor=#6c8ebf;strokeWidth=2;entryX=0;entryY=0.75;entryDx=0;entryDy=0;entryPerimeter=0;jumpStyle=gap;endArrow=none;endFill=0;" parent="1" target="ZGMD3YCJVSqUdgtJMxU0-177" edge="1">
          <mxGeometry relative="1" as="geometry">
            <mxPoint x="1200" y="465" as="targetPoint" />
            <mxPoint x="1150" y="655" as="sourcePoint" />
            <Array as="points">
              <mxPoint x="1150" y="413" />
              <mxPoint x="1230" y="413" />
            </Array>
          </mxGeometry>
        </mxCell>
        <mxCell id="ZGMD3YCJVSqUdgtJMxU0-40" value="" style="whiteSpace=wrap;html=1;aspect=fixed;" parent="1" vertex="1">
          <mxGeometry x="700" y="645" width="20" height="20" as="geometry" />
        </mxCell>
        <mxCell id="ZGMD3YCJVSqUdgtJMxU0-182" style="edgeStyle=orthogonalEdgeStyle;rounded=0;orthogonalLoop=1;jettySize=auto;html=1;entryX=0;entryY=0.5;entryDx=0;entryDy=0;fillColor=#dae8fc;strokeColor=#6c8ebf;strokeWidth=2;jumpStyle=gap;endArrow=none;endFill=0;" parent="1" source="ZGMD3YCJVSqUdgtJMxU0-41" target="ZGMD3YCJVSqUdgtJMxU0-103" edge="1">
          <mxGeometry relative="1" as="geometry">
            <mxPoint x="1290" y="485" as="targetPoint" />
            <Array as="points">
              <mxPoint x="1170" y="675" />
              <mxPoint x="1170" y="455" />
            </Array>
          </mxGeometry>
        </mxCell>
        <mxCell id="ZGMD3YCJVSqUdgtJMxU0-41" value="" style="whiteSpace=wrap;html=1;aspect=fixed;" parent="1" vertex="1">
          <mxGeometry x="700" y="665" width="20" height="20" as="geometry" />
        </mxCell>
        <mxCell id="ZGMD3YCJVSqUdgtJMxU0-183" style="edgeStyle=orthogonalEdgeStyle;rounded=0;orthogonalLoop=1;jettySize=auto;html=1;entryX=0;entryY=0.5;entryDx=0;entryDy=0;fillColor=#dae8fc;strokeColor=#6c8ebf;strokeWidth=2;endArrow=none;endFill=0;" parent="1" source="C50ntAI8cyt6T5EpAr7G-15" target="ZGMD3YCJVSqUdgtJMxU0-142" edge="1">
          <mxGeometry relative="1" as="geometry">
            <mxPoint x="1960" y="725" as="targetPoint" />
            <Array as="points">
              <mxPoint x="2520" y="695" />
              <mxPoint x="2520" y="510" />
            </Array>
          </mxGeometry>
        </mxCell>
        <mxCell id="ZGMD3YCJVSqUdgtJMxU0-42" value="" style="whiteSpace=wrap;html=1;aspect=fixed;" parent="1" vertex="1">
          <mxGeometry x="700" y="685" width="20" height="20" as="geometry" />
        </mxCell>
        <mxCell id="ZGMD3YCJVSqUdgtJMxU0-43" value="" style="whiteSpace=wrap;html=1;aspect=fixed;" parent="1" vertex="1">
          <mxGeometry x="700" y="705" width="20" height="20" as="geometry" />
        </mxCell>
        <mxCell id="ZGMD3YCJVSqUdgtJMxU0-44" value="" style="whiteSpace=wrap;html=1;aspect=fixed;" parent="1" vertex="1">
          <mxGeometry x="700" y="725" width="20" height="20" as="geometry" />
        </mxCell>
        <mxCell id="ZGMD3YCJVSqUdgtJMxU0-45" value="" style="whiteSpace=wrap;html=1;aspect=fixed;" parent="1" vertex="1">
          <mxGeometry x="700" y="745" width="20" height="20" as="geometry" />
        </mxCell>
        <mxCell id="ZGMD3YCJVSqUdgtJMxU0-46" value="" style="endArrow=classic;html=1;rounded=0;" parent="1" edge="1">
          <mxGeometry width="50" height="50" relative="1" as="geometry">
            <mxPoint x="580" y="534.8399999999999" as="sourcePoint" />
            <mxPoint x="700" y="534.8399999999999" as="targetPoint" />
          </mxGeometry>
        </mxCell>
        <mxCell id="ZGMD3YCJVSqUdgtJMxU0-47" value="inst[11]" style="edgeLabel;html=1;align=center;verticalAlign=middle;resizable=0;points=[];" parent="ZGMD3YCJVSqUdgtJMxU0-46" vertex="1" connectable="0">
          <mxGeometry x="-0.05" y="-2" relative="1" as="geometry">
            <mxPoint x="-17" y="-12" as="offset" />
          </mxGeometry>
        </mxCell>
        <mxCell id="ZGMD3YCJVSqUdgtJMxU0-48" value="" style="endArrow=classic;html=1;rounded=0;" parent="1" edge="1">
          <mxGeometry width="50" height="50" relative="1" as="geometry">
            <mxPoint x="580" y="554.8399999999999" as="sourcePoint" />
            <mxPoint x="700" y="554.8399999999999" as="targetPoint" />
          </mxGeometry>
        </mxCell>
        <mxCell id="ZGMD3YCJVSqUdgtJMxU0-49" value="inst[10]" style="edgeLabel;html=1;align=center;verticalAlign=middle;resizable=0;points=[];" parent="ZGMD3YCJVSqUdgtJMxU0-48" vertex="1" connectable="0">
          <mxGeometry x="-0.05" y="-2" relative="1" as="geometry">
            <mxPoint x="-17" y="-12" as="offset" />
          </mxGeometry>
        </mxCell>
        <mxCell id="ZGMD3YCJVSqUdgtJMxU0-50" value="" style="endArrow=classic;html=1;rounded=0;" parent="1" edge="1">
          <mxGeometry width="50" height="50" relative="1" as="geometry">
            <mxPoint x="580" y="574.8399999999999" as="sourcePoint" />
            <mxPoint x="700" y="574.8399999999999" as="targetPoint" />
          </mxGeometry>
        </mxCell>
        <mxCell id="ZGMD3YCJVSqUdgtJMxU0-51" value="inst[9]" style="edgeLabel;html=1;align=center;verticalAlign=middle;resizable=0;points=[];" parent="ZGMD3YCJVSqUdgtJMxU0-50" vertex="1" connectable="0">
          <mxGeometry x="-0.05" y="-2" relative="1" as="geometry">
            <mxPoint x="-17" y="-12" as="offset" />
          </mxGeometry>
        </mxCell>
        <mxCell id="ZGMD3YCJVSqUdgtJMxU0-52" value="" style="endArrow=classic;html=1;rounded=0;" parent="1" edge="1">
          <mxGeometry width="50" height="50" relative="1" as="geometry">
            <mxPoint x="580" y="594.8399999999999" as="sourcePoint" />
            <mxPoint x="700" y="594.8399999999999" as="targetPoint" />
          </mxGeometry>
        </mxCell>
        <mxCell id="ZGMD3YCJVSqUdgtJMxU0-53" value="inst[8]" style="edgeLabel;html=1;align=center;verticalAlign=middle;resizable=0;points=[];" parent="ZGMD3YCJVSqUdgtJMxU0-52" vertex="1" connectable="0">
          <mxGeometry x="-0.05" y="-2" relative="1" as="geometry">
            <mxPoint x="-17" y="-12" as="offset" />
          </mxGeometry>
        </mxCell>
        <mxCell id="ZGMD3YCJVSqUdgtJMxU0-54" value="" style="endArrow=classic;html=1;rounded=0;" parent="1" edge="1">
          <mxGeometry width="50" height="50" relative="1" as="geometry">
            <mxPoint x="580" y="614.8399999999999" as="sourcePoint" />
            <mxPoint x="700" y="614.8399999999999" as="targetPoint" />
          </mxGeometry>
        </mxCell>
        <mxCell id="ZGMD3YCJVSqUdgtJMxU0-55" value="inst[7]" style="edgeLabel;html=1;align=center;verticalAlign=middle;resizable=0;points=[];" parent="ZGMD3YCJVSqUdgtJMxU0-54" vertex="1" connectable="0">
          <mxGeometry x="-0.05" y="-2" relative="1" as="geometry">
            <mxPoint x="-17" y="-12" as="offset" />
          </mxGeometry>
        </mxCell>
        <mxCell id="ZGMD3YCJVSqUdgtJMxU0-56" value="" style="endArrow=classic;html=1;rounded=0;" parent="1" edge="1">
          <mxGeometry width="50" height="50" relative="1" as="geometry">
            <mxPoint x="580" y="634.8399999999999" as="sourcePoint" />
            <mxPoint x="700" y="634.8399999999999" as="targetPoint" />
          </mxGeometry>
        </mxCell>
        <mxCell id="ZGMD3YCJVSqUdgtJMxU0-57" value="inst[6]" style="edgeLabel;html=1;align=center;verticalAlign=middle;resizable=0;points=[];" parent="ZGMD3YCJVSqUdgtJMxU0-56" vertex="1" connectable="0">
          <mxGeometry x="-0.05" y="-2" relative="1" as="geometry">
            <mxPoint x="-17" y="-12" as="offset" />
          </mxGeometry>
        </mxCell>
        <mxCell id="ZGMD3YCJVSqUdgtJMxU0-58" value="" style="endArrow=classic;html=1;rounded=0;" parent="1" edge="1">
          <mxGeometry width="50" height="50" relative="1" as="geometry">
            <mxPoint x="580" y="654.8399999999999" as="sourcePoint" />
            <mxPoint x="700" y="654.8399999999999" as="targetPoint" />
          </mxGeometry>
        </mxCell>
        <mxCell id="ZGMD3YCJVSqUdgtJMxU0-59" value="inst[5]" style="edgeLabel;html=1;align=center;verticalAlign=middle;resizable=0;points=[];" parent="ZGMD3YCJVSqUdgtJMxU0-58" vertex="1" connectable="0">
          <mxGeometry x="-0.05" y="-2" relative="1" as="geometry">
            <mxPoint x="-17" y="-12" as="offset" />
          </mxGeometry>
        </mxCell>
        <mxCell id="ZGMD3YCJVSqUdgtJMxU0-60" value="" style="endArrow=classic;html=1;rounded=0;" parent="1" edge="1">
          <mxGeometry width="50" height="50" relative="1" as="geometry">
            <mxPoint x="580" y="674.8399999999999" as="sourcePoint" />
            <mxPoint x="700" y="674.8399999999999" as="targetPoint" />
          </mxGeometry>
        </mxCell>
        <mxCell id="ZGMD3YCJVSqUdgtJMxU0-61" value="inst[4]" style="edgeLabel;html=1;align=center;verticalAlign=middle;resizable=0;points=[];" parent="ZGMD3YCJVSqUdgtJMxU0-60" vertex="1" connectable="0">
          <mxGeometry x="-0.05" y="-2" relative="1" as="geometry">
            <mxPoint x="-17" y="-12" as="offset" />
          </mxGeometry>
        </mxCell>
        <mxCell id="ZGMD3YCJVSqUdgtJMxU0-62" value="" style="endArrow=classic;html=1;rounded=0;" parent="1" edge="1">
          <mxGeometry width="50" height="50" relative="1" as="geometry">
            <mxPoint x="580" y="694.8399999999999" as="sourcePoint" />
            <mxPoint x="700" y="694.8399999999999" as="targetPoint" />
          </mxGeometry>
        </mxCell>
        <mxCell id="ZGMD3YCJVSqUdgtJMxU0-63" value="inst[3]" style="edgeLabel;html=1;align=center;verticalAlign=middle;resizable=0;points=[];" parent="ZGMD3YCJVSqUdgtJMxU0-62" vertex="1" connectable="0">
          <mxGeometry x="-0.05" y="-2" relative="1" as="geometry">
            <mxPoint x="-17" y="-12" as="offset" />
          </mxGeometry>
        </mxCell>
        <mxCell id="ZGMD3YCJVSqUdgtJMxU0-64" value="" style="endArrow=classic;html=1;rounded=0;" parent="1" edge="1">
          <mxGeometry width="50" height="50" relative="1" as="geometry">
            <mxPoint x="580" y="714.8399999999999" as="sourcePoint" />
            <mxPoint x="700" y="714.8399999999999" as="targetPoint" />
          </mxGeometry>
        </mxCell>
        <mxCell id="ZGMD3YCJVSqUdgtJMxU0-65" value="inst[2]" style="edgeLabel;html=1;align=center;verticalAlign=middle;resizable=0;points=[];" parent="ZGMD3YCJVSqUdgtJMxU0-64" vertex="1" connectable="0">
          <mxGeometry x="-0.05" y="-2" relative="1" as="geometry">
            <mxPoint x="-17" y="-12" as="offset" />
          </mxGeometry>
        </mxCell>
        <mxCell id="ZGMD3YCJVSqUdgtJMxU0-66" value="" style="endArrow=classic;html=1;rounded=0;" parent="1" edge="1">
          <mxGeometry width="50" height="50" relative="1" as="geometry">
            <mxPoint x="580" y="734.8399999999999" as="sourcePoint" />
            <mxPoint x="700" y="734.8399999999999" as="targetPoint" />
          </mxGeometry>
        </mxCell>
        <mxCell id="ZGMD3YCJVSqUdgtJMxU0-67" value="inst[1]" style="edgeLabel;html=1;align=center;verticalAlign=middle;resizable=0;points=[];" parent="ZGMD3YCJVSqUdgtJMxU0-66" vertex="1" connectable="0">
          <mxGeometry x="-0.05" y="-2" relative="1" as="geometry">
            <mxPoint x="-17" y="-12" as="offset" />
          </mxGeometry>
        </mxCell>
        <mxCell id="ZGMD3YCJVSqUdgtJMxU0-68" value="" style="endArrow=classic;html=1;rounded=0;" parent="1" edge="1">
          <mxGeometry width="50" height="50" relative="1" as="geometry">
            <mxPoint x="580" y="754.8399999999999" as="sourcePoint" />
            <mxPoint x="700" y="754.8399999999999" as="targetPoint" />
          </mxGeometry>
        </mxCell>
        <mxCell id="ZGMD3YCJVSqUdgtJMxU0-69" value="inst[0]" style="edgeLabel;html=1;align=center;verticalAlign=middle;resizable=0;points=[];" parent="ZGMD3YCJVSqUdgtJMxU0-68" vertex="1" connectable="0">
          <mxGeometry x="-0.05" y="-2" relative="1" as="geometry">
            <mxPoint x="-17" y="-12" as="offset" />
          </mxGeometry>
        </mxCell>
        <mxCell id="ZGMD3YCJVSqUdgtJMxU0-87" value="" style="ellipse;whiteSpace=wrap;html=1;aspect=fixed;" parent="1" vertex="1">
          <mxGeometry width="10" as="geometry" />
        </mxCell>
        <mxCell id="ZGMD3YCJVSqUdgtJMxU0-166" style="edgeStyle=orthogonalEdgeStyle;rounded=0;orthogonalLoop=1;jettySize=auto;html=1;entryX=0;entryY=0.5;entryDx=0;entryDy=0;endArrow=none;endFill=0;" parent="1" source="ZGMD3YCJVSqUdgtJMxU0-95" target="ZGMD3YCJVSqUdgtJMxU0-109" edge="1">
          <mxGeometry relative="1" as="geometry">
            <Array as="points">
              <mxPoint x="1710" y="400" />
              <mxPoint x="1710" y="480" />
            </Array>
          </mxGeometry>
        </mxCell>
        <mxCell id="ZGMD3YCJVSqUdgtJMxU0-95" value="" style="triangle;whiteSpace=wrap;html=1;" parent="1" vertex="1">
          <mxGeometry x="1655" y="380" width="30" height="40" as="geometry" />
        </mxCell>
        <mxCell id="ZGMD3YCJVSqUdgtJMxU0-99" value="" style="group" parent="1" vertex="1" connectable="0">
          <mxGeometry x="1360" y="245" width="160" height="90" as="geometry" />
        </mxCell>
        <mxCell id="ZGMD3YCJVSqUdgtJMxU0-167" value="" style="group" parent="ZGMD3YCJVSqUdgtJMxU0-99" vertex="1" connectable="0">
          <mxGeometry width="160" height="90" as="geometry" />
        </mxCell>
        <mxCell id="ZGMD3YCJVSqUdgtJMxU0-10" value="&lt;u&gt;Register A&lt;/u&gt;" style="rounded=0;whiteSpace=wrap;html=1;verticalAlign=top;" parent="ZGMD3YCJVSqUdgtJMxU0-167" vertex="1">
          <mxGeometry width="160" height="90" as="geometry" />
        </mxCell>
        <mxCell id="ZGMD3YCJVSqUdgtJMxU0-75" value="load" style="text;html=1;align=center;verticalAlign=middle;whiteSpace=wrap;rounded=0;fontSize=11;" parent="ZGMD3YCJVSqUdgtJMxU0-167" vertex="1">
          <mxGeometry y="60" width="60" height="30" as="geometry" />
        </mxCell>
        <mxCell id="ZGMD3YCJVSqUdgtJMxU0-76" value="out" style="text;html=1;align=center;verticalAlign=middle;whiteSpace=wrap;rounded=0;fontSize=11;" parent="ZGMD3YCJVSqUdgtJMxU0-167" vertex="1">
          <mxGeometry x="100" y="30" width="60" height="30" as="geometry" />
        </mxCell>
        <mxCell id="ZGMD3YCJVSqUdgtJMxU0-74" value="in[16]" style="text;html=1;align=center;verticalAlign=middle;whiteSpace=wrap;rounded=0;fontSize=11;" parent="ZGMD3YCJVSqUdgtJMxU0-167" vertex="1">
          <mxGeometry y="30" width="60" height="30" as="geometry" />
        </mxCell>
        <mxCell id="ZGMD3YCJVSqUdgtJMxU0-100" value="" style="group" parent="1" vertex="1" connectable="0">
          <mxGeometry x="1360" y="380" width="160" height="90" as="geometry" />
        </mxCell>
        <mxCell id="ZGMD3YCJVSqUdgtJMxU0-101" value="&lt;u&gt;Register D&lt;/u&gt;" style="rounded=0;whiteSpace=wrap;html=1;verticalAlign=top;" parent="ZGMD3YCJVSqUdgtJMxU0-100" vertex="1">
          <mxGeometry width="160" height="90" as="geometry" />
        </mxCell>
        <mxCell id="ZGMD3YCJVSqUdgtJMxU0-102" value="in[16]" style="text;html=1;align=center;verticalAlign=middle;whiteSpace=wrap;rounded=0;fontSize=11;" parent="ZGMD3YCJVSqUdgtJMxU0-100" vertex="1">
          <mxGeometry y="30" width="60" height="30" as="geometry" />
        </mxCell>
        <mxCell id="ZGMD3YCJVSqUdgtJMxU0-104" value="out" style="text;html=1;align=center;verticalAlign=middle;whiteSpace=wrap;rounded=0;fontSize=11;" parent="ZGMD3YCJVSqUdgtJMxU0-100" vertex="1">
          <mxGeometry x="100" y="30" width="60" height="30" as="geometry" />
        </mxCell>
        <mxCell id="ZGMD3YCJVSqUdgtJMxU0-103" value="load" style="text;html=1;align=center;verticalAlign=middle;whiteSpace=wrap;rounded=0;fontSize=11;" parent="ZGMD3YCJVSqUdgtJMxU0-100" vertex="1">
          <mxGeometry y="60" width="60" height="30" as="geometry" />
        </mxCell>
        <mxCell id="ZGMD3YCJVSqUdgtJMxU0-119" value="" style="group" parent="1" vertex="1" connectable="0">
          <mxGeometry x="1840" y="405" width="220" height="270" as="geometry" />
        </mxCell>
        <mxCell id="ZGMD3YCJVSqUdgtJMxU0-9" value="ALU" style="rounded=0;whiteSpace=wrap;html=1;verticalAlign=top;fontStyle=4" parent="ZGMD3YCJVSqUdgtJMxU0-119" vertex="1">
          <mxGeometry width="220" height="270" as="geometry" />
        </mxCell>
        <mxCell id="ZGMD3YCJVSqUdgtJMxU0-108" value="x" style="text;html=1;align=left;verticalAlign=middle;whiteSpace=wrap;rounded=0;fontSize=11;spacingLeft=10;" parent="ZGMD3YCJVSqUdgtJMxU0-119" vertex="1">
          <mxGeometry y="30" width="60" height="30" as="geometry" />
        </mxCell>
        <mxCell id="ZGMD3YCJVSqUdgtJMxU0-109" value="y" style="text;html=1;align=left;verticalAlign=middle;whiteSpace=wrap;rounded=0;fontSize=11;spacingLeft=10;" parent="ZGMD3YCJVSqUdgtJMxU0-119" vertex="1">
          <mxGeometry y="60" width="60" height="30" as="geometry" />
        </mxCell>
        <mxCell id="ZGMD3YCJVSqUdgtJMxU0-110" value="zx" style="text;html=1;align=left;verticalAlign=middle;whiteSpace=wrap;rounded=0;fontSize=11;spacingLeft=10;" parent="ZGMD3YCJVSqUdgtJMxU0-119" vertex="1">
          <mxGeometry y="90" width="60" height="30" as="geometry" />
        </mxCell>
        <mxCell id="ZGMD3YCJVSqUdgtJMxU0-111" value="nx" style="text;html=1;align=left;verticalAlign=middle;whiteSpace=wrap;rounded=0;fontSize=11;spacingLeft=10;" parent="ZGMD3YCJVSqUdgtJMxU0-119" vertex="1">
          <mxGeometry y="120" width="60" height="30" as="geometry" />
        </mxCell>
        <mxCell id="ZGMD3YCJVSqUdgtJMxU0-112" value="zy" style="text;html=1;align=left;verticalAlign=middle;whiteSpace=wrap;rounded=0;fontSize=11;spacingLeft=10;" parent="ZGMD3YCJVSqUdgtJMxU0-119" vertex="1">
          <mxGeometry y="150" width="60" height="30" as="geometry" />
        </mxCell>
        <mxCell id="ZGMD3YCJVSqUdgtJMxU0-113" value="ny" style="text;html=1;align=left;verticalAlign=middle;whiteSpace=wrap;rounded=0;fontSize=11;spacingLeft=10;" parent="ZGMD3YCJVSqUdgtJMxU0-119" vertex="1">
          <mxGeometry y="180" width="60" height="30" as="geometry" />
        </mxCell>
        <mxCell id="ZGMD3YCJVSqUdgtJMxU0-114" value="f" style="text;html=1;align=left;verticalAlign=middle;whiteSpace=wrap;rounded=0;fontSize=11;spacingLeft=10;" parent="ZGMD3YCJVSqUdgtJMxU0-119" vertex="1">
          <mxGeometry y="210" width="60" height="30" as="geometry" />
        </mxCell>
        <mxCell id="ZGMD3YCJVSqUdgtJMxU0-115" value="no" style="text;html=1;align=left;verticalAlign=middle;whiteSpace=wrap;rounded=0;fontSize=11;spacingLeft=10;" parent="ZGMD3YCJVSqUdgtJMxU0-119" vertex="1">
          <mxGeometry y="240" width="60" height="30" as="geometry" />
        </mxCell>
        <mxCell id="ZGMD3YCJVSqUdgtJMxU0-116" value="out" style="text;html=1;align=right;verticalAlign=middle;whiteSpace=wrap;rounded=0;fontSize=11;spacingLeft=10;spacingRight=10;" parent="ZGMD3YCJVSqUdgtJMxU0-119" vertex="1">
          <mxGeometry x="160" y="30" width="60" height="30" as="geometry" />
        </mxCell>
        <mxCell id="ZGMD3YCJVSqUdgtJMxU0-117" value="zr" style="text;html=1;align=right;verticalAlign=middle;whiteSpace=wrap;rounded=0;fontSize=11;spacingLeft=10;spacingRight=10;" parent="ZGMD3YCJVSqUdgtJMxU0-119" vertex="1">
          <mxGeometry x="160" y="60" width="60" height="30" as="geometry" />
        </mxCell>
        <mxCell id="ZGMD3YCJVSqUdgtJMxU0-118" value="ng" style="text;html=1;align=right;verticalAlign=middle;whiteSpace=wrap;rounded=0;fontSize=11;spacingLeft=10;spacingRight=10;" parent="ZGMD3YCJVSqUdgtJMxU0-119" vertex="1">
          <mxGeometry x="160" y="90" width="60" height="30" as="geometry" />
        </mxCell>
        <mxCell id="ZGMD3YCJVSqUdgtJMxU0-151" style="edgeStyle=orthogonalEdgeStyle;rounded=0;orthogonalLoop=1;jettySize=auto;html=1;entryX=0;entryY=0.5;entryDx=0;entryDy=0;movable=1;resizable=1;rotatable=1;deletable=1;editable=1;locked=0;connectable=1;endArrow=none;endFill=0;" parent="1" source="ZGMD3YCJVSqUdgtJMxU0-126" target="ZGMD3YCJVSqUdgtJMxU0-150" edge="1">
          <mxGeometry relative="1" as="geometry">
            <mxPoint x="2580" y="585" as="targetPoint" />
            <Array as="points">
              <mxPoint x="2540" y="879" />
              <mxPoint x="2540" y="570" />
            </Array>
          </mxGeometry>
        </mxCell>
        <mxCell id="ZGMD3YCJVSqUdgtJMxU0-130" value="" style="endArrow=classic;html=1;rounded=0;entryX=0;entryY=0.5;entryDx=0;entryDy=0;" parent="1" target="ZGMD3YCJVSqUdgtJMxU0-132" edge="1">
          <mxGeometry width="50" height="50" relative="1" as="geometry">
            <mxPoint x="580" y="795" as="sourcePoint" />
            <mxPoint x="680" y="820" as="targetPoint" />
          </mxGeometry>
        </mxCell>
        <mxCell id="ZGMD3YCJVSqUdgtJMxU0-131" value="reset" style="edgeLabel;html=1;align=center;verticalAlign=middle;resizable=0;points=[];" parent="ZGMD3YCJVSqUdgtJMxU0-130" vertex="1" connectable="0">
          <mxGeometry x="-0.5197" relative="1" as="geometry">
            <mxPoint x="-15" y="-10" as="offset" />
          </mxGeometry>
        </mxCell>
        <mxCell id="ZGMD3YCJVSqUdgtJMxU0-133" style="edgeStyle=orthogonalEdgeStyle;rounded=0;orthogonalLoop=1;jettySize=auto;html=1;entryX=0;entryY=0.5;entryDx=0;entryDy=0;endArrow=none;endFill=0;" parent="1" source="ZGMD3YCJVSqUdgtJMxU0-132" target="ZGMD3YCJVSqUdgtJMxU0-129" edge="1">
          <mxGeometry relative="1" as="geometry">
            <mxPoint x="1310" y="908" as="targetPoint" />
            <Array as="points">
              <mxPoint x="1230" y="795" />
              <mxPoint x="1230" y="969" />
            </Array>
          </mxGeometry>
        </mxCell>
        <mxCell id="ZGMD3YCJVSqUdgtJMxU0-132" value="" style="whiteSpace=wrap;html=1;aspect=fixed;" parent="1" vertex="1">
          <mxGeometry x="700" y="785" width="20" height="20" as="geometry" />
        </mxCell>
        <mxCell id="ZGMD3YCJVSqUdgtJMxU0-134" value="" style="endArrow=classic;html=1;rounded=0;edgeStyle=orthogonalEdgeStyle;entryX=0;entryY=0.5;entryDx=0;entryDy=0;" parent="1" target="ZGMD3YCJVSqUdgtJMxU0-136" edge="1">
          <mxGeometry width="50" height="50" relative="1" as="geometry">
            <mxPoint x="580" y="414.47" as="sourcePoint" />
            <mxPoint x="690" y="416" as="targetPoint" />
            <Array as="points">
              <mxPoint x="636" y="415" />
            </Array>
          </mxGeometry>
        </mxCell>
        <mxCell id="ZGMD3YCJVSqUdgtJMxU0-135" value="inM" style="edgeLabel;html=1;align=center;verticalAlign=middle;resizable=0;points=[];" parent="ZGMD3YCJVSqUdgtJMxU0-134" vertex="1" connectable="0">
          <mxGeometry x="-0.3667" y="1" relative="1" as="geometry">
            <mxPoint x="2" y="-9" as="offset" />
          </mxGeometry>
        </mxCell>
        <mxCell id="ZGMD3YCJVSqUdgtJMxU0-136" value="" style="whiteSpace=wrap;html=1;aspect=fixed;" parent="1" vertex="1">
          <mxGeometry x="700" y="405" width="20" height="20" as="geometry" />
        </mxCell>
        <mxCell id="ZGMD3YCJVSqUdgtJMxU0-140" style="edgeStyle=orthogonalEdgeStyle;rounded=0;orthogonalLoop=1;jettySize=auto;html=1;" parent="1" source="ZGMD3YCJVSqUdgtJMxU0-139" edge="1">
          <mxGeometry relative="1" as="geometry">
            <mxPoint x="2730" y="450" as="targetPoint" />
          </mxGeometry>
        </mxCell>
        <mxCell id="ZGMD3YCJVSqUdgtJMxU0-141" value="outM" style="edgeLabel;html=1;align=center;verticalAlign=middle;resizable=0;points=[];" parent="ZGMD3YCJVSqUdgtJMxU0-140" vertex="1" connectable="0">
          <mxGeometry x="-0.2534" y="-1" relative="1" as="geometry">
            <mxPoint x="9" y="-11" as="offset" />
          </mxGeometry>
        </mxCell>
        <mxCell id="ZGMD3YCJVSqUdgtJMxU0-139" value="" style="whiteSpace=wrap;html=1;aspect=fixed;" parent="1" vertex="1">
          <mxGeometry x="2600" y="440" width="20" height="20" as="geometry" />
        </mxCell>
        <mxCell id="ZGMD3YCJVSqUdgtJMxU0-143" style="edgeStyle=orthogonalEdgeStyle;rounded=0;orthogonalLoop=1;jettySize=auto;html=1;" parent="1" source="ZGMD3YCJVSqUdgtJMxU0-142" edge="1">
          <mxGeometry relative="1" as="geometry">
            <mxPoint x="2730" y="510" as="targetPoint" />
          </mxGeometry>
        </mxCell>
        <mxCell id="ZGMD3YCJVSqUdgtJMxU0-144" value="writeM" style="edgeLabel;html=1;align=center;verticalAlign=middle;resizable=0;points=[];" parent="ZGMD3YCJVSqUdgtJMxU0-143" vertex="1" connectable="0">
          <mxGeometry x="-0.2534" y="-2" relative="1" as="geometry">
            <mxPoint x="9" y="-12" as="offset" />
          </mxGeometry>
        </mxCell>
        <mxCell id="ZGMD3YCJVSqUdgtJMxU0-142" value="" style="whiteSpace=wrap;html=1;aspect=fixed;" parent="1" vertex="1">
          <mxGeometry x="2600" y="500" width="20" height="20" as="geometry" />
        </mxCell>
        <mxCell id="ZGMD3YCJVSqUdgtJMxU0-145" style="edgeStyle=orthogonalEdgeStyle;rounded=0;orthogonalLoop=1;jettySize=auto;html=1;" parent="1" source="ZGMD3YCJVSqUdgtJMxU0-147" edge="1">
          <mxGeometry relative="1" as="geometry">
            <mxPoint x="2730" y="390" as="targetPoint" />
          </mxGeometry>
        </mxCell>
        <mxCell id="ZGMD3YCJVSqUdgtJMxU0-146" value="addressM" style="edgeLabel;html=1;align=center;verticalAlign=middle;resizable=0;points=[];" parent="ZGMD3YCJVSqUdgtJMxU0-145" vertex="1" connectable="0">
          <mxGeometry x="-0.2534" y="-2" relative="1" as="geometry">
            <mxPoint x="9" y="-12" as="offset" />
          </mxGeometry>
        </mxCell>
        <mxCell id="ZGMD3YCJVSqUdgtJMxU0-147" value="" style="whiteSpace=wrap;html=1;aspect=fixed;" parent="1" vertex="1">
          <mxGeometry x="2600" y="380" width="20" height="20" as="geometry" />
        </mxCell>
        <mxCell id="ZGMD3YCJVSqUdgtJMxU0-148" style="edgeStyle=orthogonalEdgeStyle;rounded=0;orthogonalLoop=1;jettySize=auto;html=1;" parent="1" source="ZGMD3YCJVSqUdgtJMxU0-150" edge="1">
          <mxGeometry relative="1" as="geometry">
            <mxPoint x="2730" y="570" as="targetPoint" />
          </mxGeometry>
        </mxCell>
        <mxCell id="ZGMD3YCJVSqUdgtJMxU0-149" value="pc" style="edgeLabel;html=1;align=center;verticalAlign=middle;resizable=0;points=[];" parent="ZGMD3YCJVSqUdgtJMxU0-148" vertex="1" connectable="0">
          <mxGeometry x="-0.2534" y="-2" relative="1" as="geometry">
            <mxPoint x="9" y="-12" as="offset" />
          </mxGeometry>
        </mxCell>
        <mxCell id="ZGMD3YCJVSqUdgtJMxU0-150" value="" style="whiteSpace=wrap;html=1;aspect=fixed;" parent="1" vertex="1">
          <mxGeometry x="2600" y="560" width="20" height="20" as="geometry" />
        </mxCell>
        <mxCell id="ZGMD3YCJVSqUdgtJMxU0-152" style="edgeStyle=orthogonalEdgeStyle;rounded=0;orthogonalLoop=1;jettySize=auto;html=1;entryX=0;entryY=0.5;entryDx=0;entryDy=0;exitX=1;exitY=0.5;exitDx=0;exitDy=0;endArrow=none;endFill=0;" parent="1" source="ZGMD3YCJVSqUdgtJMxU0-272" target="ZGMD3YCJVSqUdgtJMxU0-147" edge="1">
          <mxGeometry relative="1" as="geometry">
            <Array as="points">
              <mxPoint x="2200" y="290" />
              <mxPoint x="2200" y="390" />
            </Array>
          </mxGeometry>
        </mxCell>
        <mxCell id="ZGMD3YCJVSqUdgtJMxU0-165" style="edgeStyle=orthogonalEdgeStyle;rounded=0;orthogonalLoop=1;jettySize=auto;html=1;entryX=0;entryY=0.25;entryDx=0;entryDy=0;exitX=0.5;exitY=1;exitDx=0;exitDy=0;endArrow=none;endFill=0;" parent="1" source="ZGMD3YCJVSqUdgtJMxU0-274" target="ZGMD3YCJVSqUdgtJMxU0-95" edge="1">
          <mxGeometry relative="1" as="geometry">
            <mxPoint x="1630" y="325" as="sourcePoint" />
            <Array as="points">
              <mxPoint x="1600" y="390" />
            </Array>
          </mxGeometry>
        </mxCell>
        <mxCell id="ZGMD3YCJVSqUdgtJMxU0-175" value="" style="group" parent="1" vertex="1" connectable="0">
          <mxGeometry x="1340" y="835" width="160" height="156" as="geometry" />
        </mxCell>
        <mxCell id="ZGMD3YCJVSqUdgtJMxU0-123" value="&lt;u&gt;PC&lt;/u&gt;" style="rounded=0;whiteSpace=wrap;html=1;verticalAlign=top;" parent="ZGMD3YCJVSqUdgtJMxU0-175" vertex="1">
          <mxGeometry width="160" height="156" as="geometry" />
        </mxCell>
        <mxCell id="ZGMD3YCJVSqUdgtJMxU0-124" value="in[16]" style="text;html=1;align=left;verticalAlign=middle;whiteSpace=wrap;rounded=0;fontSize=11;spacingLeft=10;" parent="ZGMD3YCJVSqUdgtJMxU0-175" vertex="1">
          <mxGeometry y="29" width="60" height="30" as="geometry" />
        </mxCell>
        <mxCell id="ZGMD3YCJVSqUdgtJMxU0-126" value="out" style="text;html=1;align=right;verticalAlign=middle;whiteSpace=wrap;rounded=0;fontSize=11;spacingRight=10;" parent="ZGMD3YCJVSqUdgtJMxU0-175" vertex="1">
          <mxGeometry x="100" y="29" width="60" height="30" as="geometry" />
        </mxCell>
        <mxCell id="ZGMD3YCJVSqUdgtJMxU0-125" value="load" style="text;html=1;align=left;verticalAlign=middle;whiteSpace=wrap;rounded=0;fontSize=11;spacingLeft=10;" parent="ZGMD3YCJVSqUdgtJMxU0-175" vertex="1">
          <mxGeometry y="59" width="60" height="30" as="geometry" />
        </mxCell>
        <mxCell id="ZGMD3YCJVSqUdgtJMxU0-128" value="inc" style="text;html=1;align=left;verticalAlign=middle;whiteSpace=wrap;rounded=0;fontSize=11;spacingLeft=10;" parent="ZGMD3YCJVSqUdgtJMxU0-175" vertex="1">
          <mxGeometry y="89" width="60" height="30" as="geometry" />
        </mxCell>
        <mxCell id="ZGMD3YCJVSqUdgtJMxU0-129" value="reset" style="text;html=1;align=left;verticalAlign=middle;whiteSpace=wrap;rounded=0;fontSize=11;spacingLeft=10;" parent="ZGMD3YCJVSqUdgtJMxU0-175" vertex="1">
          <mxGeometry y="119" width="60" height="30" as="geometry" />
        </mxCell>
        <mxCell id="ZGMD3YCJVSqUdgtJMxU0-180" style="edgeStyle=orthogonalEdgeStyle;rounded=0;orthogonalLoop=1;jettySize=auto;html=1;exitX=1;exitY=0.5;exitDx=0;exitDy=0;exitPerimeter=0;entryX=0;entryY=0.5;entryDx=0;entryDy=0;endArrow=none;endFill=0;" parent="1" source="ZGMD3YCJVSqUdgtJMxU0-177" target="ZGMD3YCJVSqUdgtJMxU0-75" edge="1">
          <mxGeometry relative="1" as="geometry">
            <Array as="points">
              <mxPoint x="1320" y="405" />
              <mxPoint x="1320" y="320" />
            </Array>
          </mxGeometry>
        </mxCell>
        <mxCell id="ZGMD3YCJVSqUdgtJMxU0-177" value="" style="verticalLabelPosition=bottom;shadow=0;dashed=0;align=center;html=1;verticalAlign=top;shape=mxgraph.electrical.logic_gates.logic_gate;operation=or;" parent="1" vertex="1">
          <mxGeometry x="1230" y="390" width="50" height="30" as="geometry" />
        </mxCell>
        <mxCell id="ZGMD3YCJVSqUdgtJMxU0-201" style="edgeStyle=orthogonalEdgeStyle;rounded=0;orthogonalLoop=1;jettySize=auto;html=1;entryX=0;entryY=0.25;entryDx=0;entryDy=0;entryPerimeter=0;endArrow=none;endFill=0;strokeWidth=1;jumpStyle=gap;" parent="1" source="C50ntAI8cyt6T5EpAr7G-22" target="ZGMD3YCJVSqUdgtJMxU0-205" edge="1">
          <mxGeometry relative="1" as="geometry">
            <mxPoint x="2210" y="574.9999999999998" as="targetPoint" />
          </mxGeometry>
        </mxCell>
        <mxCell id="ZGMD3YCJVSqUdgtJMxU0-188" value="" style="group;movable=1;resizable=1;rotatable=1;deletable=1;editable=1;locked=0;connectable=1;" parent="1" vertex="1" connectable="0">
          <mxGeometry x="2120" y="525" width="30" height="20" as="geometry" />
        </mxCell>
        <mxCell id="ZGMD3YCJVSqUdgtJMxU0-189" value="" style="triangle;whiteSpace=wrap;html=1;movable=0;resizable=0;rotatable=0;deletable=0;editable=0;locked=1;connectable=0;" parent="ZGMD3YCJVSqUdgtJMxU0-188" vertex="1">
          <mxGeometry width="20" height="20" as="geometry" />
        </mxCell>
        <mxCell id="ZGMD3YCJVSqUdgtJMxU0-190" value="" style="ellipse;whiteSpace=wrap;html=1;aspect=fixed;movable=0;resizable=0;rotatable=0;deletable=0;editable=0;locked=1;connectable=0;" parent="ZGMD3YCJVSqUdgtJMxU0-188" vertex="1">
          <mxGeometry x="20" y="5" width="10" height="10" as="geometry" />
        </mxCell>
        <mxCell id="ZGMD3YCJVSqUdgtJMxU0-192" style="edgeStyle=orthogonalEdgeStyle;rounded=0;orthogonalLoop=1;jettySize=auto;html=1;entryX=0;entryY=0.5;entryDx=0;entryDy=0;exitX=0.5;exitY=1;exitDx=0;exitDy=0;endArrow=none;endFill=0;" parent="1" source="ZGMD3YCJVSqUdgtJMxU0-198" target="ZGMD3YCJVSqUdgtJMxU0-188" edge="1">
          <mxGeometry relative="1" as="geometry">
            <Array as="points">
              <mxPoint x="2105" y="535" />
            </Array>
          </mxGeometry>
        </mxCell>
        <mxCell id="ZGMD3YCJVSqUdgtJMxU0-197" value="" style="edgeStyle=orthogonalEdgeStyle;rounded=0;orthogonalLoop=1;jettySize=auto;html=1;entryX=0;entryY=0.25;entryDx=0;entryDy=0;entryPerimeter=0;endArrow=none;endFill=0;" parent="1" source="C50ntAI8cyt6T5EpAr7G-31" target="ZGMD3YCJVSqUdgtJMxU0-204" edge="1">
          <mxGeometry relative="1" as="geometry">
            <mxPoint x="2060" y="480" as="sourcePoint" />
            <mxPoint x="2129.9999999999995" y="480" as="targetPoint" />
            <Array as="points" />
          </mxGeometry>
        </mxCell>
        <mxCell id="ZGMD3YCJVSqUdgtJMxU0-199" value="" style="edgeStyle=orthogonalEdgeStyle;rounded=0;orthogonalLoop=1;jettySize=auto;html=1;entryX=0;entryY=0.5;entryDx=0;entryDy=0;endArrow=none;endFill=0;" parent="1" source="ZGMD3YCJVSqUdgtJMxU0-118" target="ZGMD3YCJVSqUdgtJMxU0-198" edge="1">
          <mxGeometry relative="1" as="geometry">
            <mxPoint x="2060" y="510" as="sourcePoint" />
            <mxPoint x="2220" y="575" as="targetPoint" />
            <Array as="points" />
          </mxGeometry>
        </mxCell>
        <mxCell id="ZGMD3YCJVSqUdgtJMxU0-200" style="edgeStyle=orthogonalEdgeStyle;rounded=0;orthogonalLoop=1;jettySize=auto;html=1;entryX=0;entryY=0.25;entryDx=0;entryDy=0;entryPerimeter=0;endArrow=none;endFill=0;" parent="1" source="ZGMD3YCJVSqUdgtJMxU0-198" target="ZGMD3YCJVSqUdgtJMxU0-202" edge="1">
          <mxGeometry relative="1" as="geometry">
            <mxPoint x="2210" y="555" as="targetPoint" />
            <Array as="points">
              <mxPoint x="2180" y="510" />
              <mxPoint x="2180" y="510" />
            </Array>
          </mxGeometry>
        </mxCell>
        <mxCell id="ZGMD3YCJVSqUdgtJMxU0-198" value="" style="ellipse;whiteSpace=wrap;html=1;aspect=fixed;fillColor=#000000;" parent="1" vertex="1">
          <mxGeometry x="2100" y="505" width="10" height="10" as="geometry" />
        </mxCell>
        <mxCell id="ZGMD3YCJVSqUdgtJMxU0-202" value="" style="verticalLabelPosition=bottom;shadow=0;dashed=0;align=center;html=1;verticalAlign=top;shape=mxgraph.electrical.logic_gates.logic_gate;operation=and;" parent="1" vertex="1">
          <mxGeometry x="2260" y="505" width="30" height="20" as="geometry" />
        </mxCell>
        <mxCell id="ZGMD3YCJVSqUdgtJMxU0-204" value="" style="verticalLabelPosition=bottom;shadow=0;dashed=0;align=center;html=1;verticalAlign=top;shape=mxgraph.electrical.logic_gates.logic_gate;operation=and;" parent="1" vertex="1">
          <mxGeometry x="2260" y="475" width="30" height="20" as="geometry" />
        </mxCell>
        <mxCell id="ZGMD3YCJVSqUdgtJMxU0-205" value="" style="verticalLabelPosition=bottom;shadow=0;dashed=0;align=center;html=1;verticalAlign=top;shape=mxgraph.electrical.logic_gates.logic_gate;operation=and;strokeWidth=1;" parent="1" vertex="1">
          <mxGeometry x="2260" y="535" width="30" height="20" as="geometry" />
        </mxCell>
        <mxCell id="ZGMD3YCJVSqUdgtJMxU0-212" style="edgeStyle=orthogonalEdgeStyle;rounded=0;orthogonalLoop=1;jettySize=auto;html=1;entryX=0;entryY=0.5;entryDx=0;entryDy=0;endArrow=none;endFill=0;" parent="1" source="ZGMD3YCJVSqUdgtJMxU0-213" target="ZGMD3YCJVSqUdgtJMxU0-139" edge="1">
          <mxGeometry relative="1" as="geometry" />
        </mxCell>
        <mxCell id="ZGMD3YCJVSqUdgtJMxU0-215" style="edgeStyle=orthogonalEdgeStyle;rounded=0;orthogonalLoop=1;jettySize=auto;html=1;entryX=0;entryY=0.75;entryDx=0;entryDy=0;jumpStyle=gap;exitX=0;exitY=0.5;exitDx=0;exitDy=0;endArrow=none;endFill=0;" parent="1" source="ZGMD3YCJVSqUdgtJMxU0-263" target="ZGMD3YCJVSqUdgtJMxU0-216" edge="1">
          <mxGeometry relative="1" as="geometry">
            <mxPoint x="1160" y="255" as="targetPoint" />
            <Array as="points">
              <mxPoint x="1130" y="165" />
              <mxPoint x="1130" y="300" />
            </Array>
          </mxGeometry>
        </mxCell>
        <mxCell id="ZGMD3YCJVSqUdgtJMxU0-213" value="" style="ellipse;whiteSpace=wrap;html=1;aspect=fixed;fillColor=#000000;" parent="1" vertex="1">
          <mxGeometry x="2150" y="445" width="10" height="10" as="geometry" />
        </mxCell>
        <mxCell id="ZGMD3YCJVSqUdgtJMxU0-218" style="edgeStyle=orthogonalEdgeStyle;rounded=0;orthogonalLoop=1;jettySize=auto;html=1;entryX=0;entryY=0.5;entryDx=0;entryDy=0;endArrow=none;endFill=0;" parent="1" source="ZGMD3YCJVSqUdgtJMxU0-216" target="ZGMD3YCJVSqUdgtJMxU0-74" edge="1">
          <mxGeometry relative="1" as="geometry" />
        </mxCell>
        <mxCell id="ZGMD3YCJVSqUdgtJMxU0-216" value="" style="triangle;whiteSpace=wrap;html=1;" parent="1" vertex="1">
          <mxGeometry x="1190" y="270" width="30" height="40" as="geometry" />
        </mxCell>
        <mxCell id="ZGMD3YCJVSqUdgtJMxU0-223" value="" style="edgeStyle=orthogonalEdgeStyle;rounded=0;orthogonalLoop=1;jettySize=auto;html=1;entryX=0;entryY=0.5;entryDx=0;entryDy=0;endArrow=none;endFill=0;fillColor=#e1d5e7;strokeColor=#9673a6;strokeWidth=2;" parent="1" source="ZGMD3YCJVSqUdgtJMxU0-45" target="ZGMD3YCJVSqUdgtJMxU0-222" edge="1">
          <mxGeometry relative="1" as="geometry">
            <mxPoint x="2260" y="550" as="targetPoint" />
            <mxPoint x="720" y="755" as="sourcePoint" />
            <Array as="points" />
          </mxGeometry>
        </mxCell>
        <mxCell id="ZGMD3YCJVSqUdgtJMxU0-226" style="edgeStyle=orthogonalEdgeStyle;rounded=0;orthogonalLoop=1;jettySize=auto;html=1;entryX=0;entryY=0.25;entryDx=0;entryDy=0;jumpStyle=gap;endArrow=none;endFill=0;" parent="1" source="ZGMD3YCJVSqUdgtJMxU0-300" target="ZGMD3YCJVSqUdgtJMxU0-216" edge="1">
          <mxGeometry relative="1" as="geometry">
            <mxPoint x="1105" y="285" as="targetPoint" />
            <Array as="points">
              <mxPoint x="1105" y="280" />
            </Array>
          </mxGeometry>
        </mxCell>
        <mxCell id="ZGMD3YCJVSqUdgtJMxU0-222" value="" style="ellipse;whiteSpace=wrap;html=1;aspect=fixed;fillColor=#e1d5e7;strokeColor=#9673a6;" parent="1" vertex="1">
          <mxGeometry x="1100" y="750" width="10" height="10" as="geometry" />
        </mxCell>
        <mxCell id="ZGMD3YCJVSqUdgtJMxU0-225" value="" style="edgeStyle=orthogonalEdgeStyle;rounded=0;orthogonalLoop=1;jettySize=auto;html=1;entryX=0;entryY=0.5;entryDx=0;entryDy=0;endArrow=none;endFill=0;fillColor=#e1d5e7;strokeColor=#9673a6;strokeWidth=2;" parent="1" source="ZGMD3YCJVSqUdgtJMxU0-44" target="ZGMD3YCJVSqUdgtJMxU0-224" edge="1">
          <mxGeometry relative="1" as="geometry">
            <mxPoint x="2260" y="490" as="targetPoint" />
            <mxPoint x="720" y="735" as="sourcePoint" />
            <Array as="points" />
          </mxGeometry>
        </mxCell>
        <mxCell id="ZGMD3YCJVSqUdgtJMxU0-227" style="edgeStyle=orthogonalEdgeStyle;rounded=0;orthogonalLoop=1;jettySize=auto;html=1;entryX=0.5;entryY=1;entryDx=0;entryDy=0;jumpStyle=gap;endArrow=none;endFill=0;fillColor=#e1d5e7;strokeColor=#9673a6;strokeWidth=2;" parent="1" source="ZGMD3YCJVSqUdgtJMxU0-224" target="ZGMD3YCJVSqUdgtJMxU0-302" edge="1">
          <mxGeometry relative="1" as="geometry">
            <mxPoint x="1070" y="405" as="targetPoint" />
            <Array as="points" />
          </mxGeometry>
        </mxCell>
        <mxCell id="ZGMD3YCJVSqUdgtJMxU0-224" value="" style="ellipse;whiteSpace=wrap;html=1;aspect=fixed;fillColor=#e1d5e7;strokeColor=#9673a6;" parent="1" vertex="1">
          <mxGeometry x="1080" y="730" width="10" height="10" as="geometry" />
        </mxCell>
        <mxCell id="ZGMD3YCJVSqUdgtJMxU0-229" value="" style="edgeStyle=orthogonalEdgeStyle;rounded=0;orthogonalLoop=1;jettySize=auto;html=1;entryX=0;entryY=0.5;entryDx=0;entryDy=0;endArrow=none;endFill=0;fillColor=#e1d5e7;strokeColor=#9673a6;strokeWidth=2;" parent="1" source="ZGMD3YCJVSqUdgtJMxU0-43" target="ZGMD3YCJVSqUdgtJMxU0-228" edge="1">
          <mxGeometry relative="1" as="geometry">
            <mxPoint x="2260" y="520" as="targetPoint" />
            <mxPoint x="720" y="715" as="sourcePoint" />
            <Array as="points" />
          </mxGeometry>
        </mxCell>
        <mxCell id="ZGMD3YCJVSqUdgtJMxU0-230" style="edgeStyle=orthogonalEdgeStyle;rounded=0;orthogonalLoop=1;jettySize=auto;html=1;entryX=0.5;entryY=1;entryDx=0;entryDy=0;jumpStyle=gap;endArrow=none;endFill=0;fillColor=#e1d5e7;strokeColor=#9673a6;strokeWidth=2;" parent="1" source="ZGMD3YCJVSqUdgtJMxU0-228" target="ZGMD3YCJVSqUdgtJMxU0-307" edge="1">
          <mxGeometry relative="1" as="geometry">
            <mxPoint x="1060" y="395" as="targetPoint" />
            <Array as="points" />
          </mxGeometry>
        </mxCell>
        <mxCell id="ZGMD3YCJVSqUdgtJMxU0-228" value="" style="ellipse;whiteSpace=wrap;html=1;aspect=fixed;fillColor=#e1d5e7;strokeColor=#9673a6;" parent="1" vertex="1">
          <mxGeometry x="1060" y="710" width="10" height="10" as="geometry" />
        </mxCell>
        <mxCell id="ZGMD3YCJVSqUdgtJMxU0-232" style="edgeStyle=orthogonalEdgeStyle;rounded=0;orthogonalLoop=1;jettySize=auto;html=1;entryX=0.5;entryY=1;entryDx=0;entryDy=0;jumpStyle=gap;endArrow=none;endFill=0;fillColor=#dae8fc;strokeColor=#6c8ebf;strokeWidth=2;" parent="1" source="ZGMD3YCJVSqUdgtJMxU0-231" target="ZGMD3YCJVSqUdgtJMxU0-305" edge="1">
          <mxGeometry relative="1" as="geometry">
            <Array as="points" />
          </mxGeometry>
        </mxCell>
        <mxCell id="ZGMD3YCJVSqUdgtJMxU0-231" value="" style="ellipse;whiteSpace=wrap;html=1;aspect=fixed;fillColor=#dae8fc;strokeColor=#6c8ebf;" parent="1" vertex="1">
          <mxGeometry x="1040" y="690" width="10" height="10" as="geometry" />
        </mxCell>
        <mxCell id="ZGMD3YCJVSqUdgtJMxU0-234" style="edgeStyle=orthogonalEdgeStyle;rounded=0;orthogonalLoop=1;jettySize=auto;html=1;entryX=0.5;entryY=1;entryDx=0;entryDy=0;jumpStyle=gap;endArrow=none;endFill=0;fillColor=#dae8fc;strokeColor=#6c8ebf;strokeWidth=2;" parent="1" source="ZGMD3YCJVSqUdgtJMxU0-233" target="ZGMD3YCJVSqUdgtJMxU0-308" edge="1">
          <mxGeometry relative="1" as="geometry">
            <mxPoint x="1025" y="495" as="targetPoint" />
            <Array as="points" />
          </mxGeometry>
        </mxCell>
        <mxCell id="ZGMD3YCJVSqUdgtJMxU0-233" value="" style="ellipse;whiteSpace=wrap;html=1;aspect=fixed;fillColor=#dae8fc;strokeColor=#6c8ebf;" parent="1" vertex="1">
          <mxGeometry x="1020" y="670" width="10" height="10" as="geometry" />
        </mxCell>
        <mxCell id="ZGMD3YCJVSqUdgtJMxU0-238" style="edgeStyle=orthogonalEdgeStyle;rounded=0;orthogonalLoop=1;jettySize=auto;html=1;entryX=0.5;entryY=1;entryDx=0;entryDy=0;jumpStyle=gap;endArrow=none;endFill=0;fillColor=#dae8fc;strokeColor=#6c8ebf;strokeWidth=2;" parent="1" source="ZGMD3YCJVSqUdgtJMxU0-235" target="ZGMD3YCJVSqUdgtJMxU0-310" edge="1">
          <mxGeometry relative="1" as="geometry">
            <Array as="points" />
          </mxGeometry>
        </mxCell>
        <mxCell id="ZGMD3YCJVSqUdgtJMxU0-235" value="" style="ellipse;whiteSpace=wrap;html=1;aspect=fixed;fillColor=#dae8fc;strokeColor=#6c8ebf;" parent="1" vertex="1">
          <mxGeometry x="1000" y="650" width="10" height="10" as="geometry" />
        </mxCell>
        <mxCell id="ZGMD3YCJVSqUdgtJMxU0-240" value="" style="edgeStyle=orthogonalEdgeStyle;rounded=0;orthogonalLoop=1;jettySize=auto;html=1;entryX=0;entryY=0.5;entryDx=0;entryDy=0;fillColor=#ffe6cc;strokeColor=#d79b00;strokeWidth=2;endArrow=none;endFill=0;" parent="1" source="ZGMD3YCJVSqUdgtJMxU0-39" target="ZGMD3YCJVSqUdgtJMxU0-239" edge="1">
          <mxGeometry relative="1" as="geometry">
            <mxPoint x="720" y="635" as="sourcePoint" />
            <mxPoint x="1840" y="660" as="targetPoint" />
            <Array as="points" />
          </mxGeometry>
        </mxCell>
        <mxCell id="ZGMD3YCJVSqUdgtJMxU0-241" style="edgeStyle=orthogonalEdgeStyle;rounded=0;orthogonalLoop=1;jettySize=auto;html=1;entryX=0;entryY=0.25;entryDx=0;entryDy=0;jumpStyle=gap;endArrow=none;endFill=0;" parent="1" source="ZGMD3YCJVSqUdgtJMxU0-311" target="ZGMD3YCJVSqUdgtJMxU0-216" edge="1">
          <mxGeometry relative="1" as="geometry">
            <Array as="points">
              <mxPoint x="985" y="280" />
            </Array>
          </mxGeometry>
        </mxCell>
        <mxCell id="ZGMD3YCJVSqUdgtJMxU0-239" value="" style="ellipse;whiteSpace=wrap;html=1;aspect=fixed;fillColor=#ffe6cc;strokeColor=#d79b00;" parent="1" vertex="1">
          <mxGeometry x="980" y="630" width="10" height="10" as="geometry" />
        </mxCell>
        <mxCell id="ZGMD3YCJVSqUdgtJMxU0-243" value="" style="edgeStyle=orthogonalEdgeStyle;rounded=0;orthogonalLoop=1;jettySize=auto;html=1;entryX=0;entryY=0.5;entryDx=0;entryDy=0;strokeWidth=2;fillColor=#ffe6cc;strokeColor=#d79b00;endArrow=none;endFill=0;" parent="1" source="ZGMD3YCJVSqUdgtJMxU0-38" target="ZGMD3YCJVSqUdgtJMxU0-242" edge="1">
          <mxGeometry relative="1" as="geometry">
            <mxPoint x="720" y="615" as="sourcePoint" />
            <mxPoint x="1840" y="630" as="targetPoint" />
            <Array as="points" />
          </mxGeometry>
        </mxCell>
        <mxCell id="ZGMD3YCJVSqUdgtJMxU0-244" style="edgeStyle=orthogonalEdgeStyle;rounded=0;orthogonalLoop=1;jettySize=auto;html=1;entryX=0.5;entryY=1;entryDx=0;entryDy=0;jumpStyle=gap;endArrow=none;endFill=0;strokeWidth=2;fillColor=#ffe6cc;strokeColor=#d79b00;" parent="1" source="ZGMD3YCJVSqUdgtJMxU0-242" target="ZGMD3YCJVSqUdgtJMxU0-313" edge="1">
          <mxGeometry relative="1" as="geometry">
            <mxPoint x="965" y="435" as="targetPoint" />
            <Array as="points" />
          </mxGeometry>
        </mxCell>
        <mxCell id="ZGMD3YCJVSqUdgtJMxU0-242" value="" style="ellipse;whiteSpace=wrap;html=1;aspect=fixed;fillColor=#ffe6cc;strokeColor=#d79b00;" parent="1" vertex="1">
          <mxGeometry x="960" y="610" width="10" height="10" as="geometry" />
        </mxCell>
        <mxCell id="ZGMD3YCJVSqUdgtJMxU0-246" value="" style="edgeStyle=orthogonalEdgeStyle;rounded=0;orthogonalLoop=1;jettySize=auto;html=1;entryX=0;entryY=0.5;entryDx=0;entryDy=0;fillColor=#ffe6cc;strokeColor=#d79b00;endSize=6;strokeWidth=2;endArrow=none;endFill=0;" parent="1" source="ZGMD3YCJVSqUdgtJMxU0-37" target="ZGMD3YCJVSqUdgtJMxU0-245" edge="1">
          <mxGeometry relative="1" as="geometry">
            <mxPoint x="720" y="595" as="sourcePoint" />
            <mxPoint x="1840" y="600" as="targetPoint" />
            <Array as="points" />
          </mxGeometry>
        </mxCell>
        <mxCell id="ZGMD3YCJVSqUdgtJMxU0-247" style="edgeStyle=orthogonalEdgeStyle;rounded=0;orthogonalLoop=1;jettySize=auto;html=1;entryX=0;entryY=0.25;entryDx=0;entryDy=0;exitX=0.5;exitY=0;exitDx=0;exitDy=0;jumpStyle=gap;endArrow=none;endFill=0;" parent="1" source="ZGMD3YCJVSqUdgtJMxU0-314" target="ZGMD3YCJVSqUdgtJMxU0-216" edge="1">
          <mxGeometry relative="1" as="geometry">
            <Array as="points">
              <mxPoint x="945" y="280" />
            </Array>
          </mxGeometry>
        </mxCell>
        <mxCell id="ZGMD3YCJVSqUdgtJMxU0-245" value="" style="ellipse;whiteSpace=wrap;html=1;aspect=fixed;fillColor=#ffe6cc;strokeColor=#d79b00;" parent="1" vertex="1">
          <mxGeometry x="940" y="590" width="10" height="10" as="geometry" />
        </mxCell>
        <mxCell id="ZGMD3YCJVSqUdgtJMxU0-249" value="" style="edgeStyle=orthogonalEdgeStyle;rounded=0;orthogonalLoop=1;jettySize=auto;html=1;entryX=0;entryY=0.5;entryDx=0;entryDy=0;fillColor=#ffe6cc;strokeColor=#d79b00;strokeWidth=2;endArrow=none;endFill=0;" parent="1" source="ZGMD3YCJVSqUdgtJMxU0-36" target="ZGMD3YCJVSqUdgtJMxU0-248" edge="1">
          <mxGeometry relative="1" as="geometry">
            <mxPoint x="720" y="575" as="sourcePoint" />
            <mxPoint x="1840" y="570" as="targetPoint" />
            <Array as="points" />
          </mxGeometry>
        </mxCell>
        <mxCell id="ZGMD3YCJVSqUdgtJMxU0-250" style="edgeStyle=orthogonalEdgeStyle;rounded=0;orthogonalLoop=1;jettySize=auto;html=1;entryX=0.5;entryY=1;entryDx=0;entryDy=0;jumpStyle=gap;endArrow=none;endFill=0;fillColor=#ffe6cc;strokeColor=#d79b00;strokeWidth=2;" parent="1" source="ZGMD3YCJVSqUdgtJMxU0-248" target="ZGMD3YCJVSqUdgtJMxU0-317" edge="1">
          <mxGeometry relative="1" as="geometry">
            <Array as="points" />
          </mxGeometry>
        </mxCell>
        <mxCell id="ZGMD3YCJVSqUdgtJMxU0-248" value="" style="ellipse;whiteSpace=wrap;html=1;aspect=fixed;fillColor=#ffe6cc;strokeColor=#d79b00;" parent="1" vertex="1">
          <mxGeometry x="920" y="570" width="10" height="10" as="geometry" />
        </mxCell>
        <mxCell id="ZGMD3YCJVSqUdgtJMxU0-252" value="" style="edgeStyle=orthogonalEdgeStyle;rounded=0;orthogonalLoop=1;jettySize=auto;html=1;entryX=0;entryY=0.5;entryDx=0;entryDy=0;fillColor=#ffe6cc;strokeColor=#d79b00;strokeWidth=2;endArrow=none;endFill=0;" parent="1" source="ZGMD3YCJVSqUdgtJMxU0-35" target="ZGMD3YCJVSqUdgtJMxU0-251" edge="1">
          <mxGeometry relative="1" as="geometry">
            <mxPoint x="720" y="555" as="sourcePoint" />
            <mxPoint x="1840" y="540" as="targetPoint" />
            <Array as="points" />
          </mxGeometry>
        </mxCell>
        <mxCell id="ZGMD3YCJVSqUdgtJMxU0-253" style="edgeStyle=orthogonalEdgeStyle;rounded=0;orthogonalLoop=1;jettySize=auto;html=1;entryX=0;entryY=0.25;entryDx=0;entryDy=0;jumpStyle=gap;endArrow=none;endFill=0;" parent="1" source="ZGMD3YCJVSqUdgtJMxU0-318" target="ZGMD3YCJVSqUdgtJMxU0-216" edge="1">
          <mxGeometry relative="1" as="geometry">
            <mxPoint x="905" y="425" as="targetPoint" />
            <Array as="points">
              <mxPoint x="905" y="280" />
            </Array>
          </mxGeometry>
        </mxCell>
        <mxCell id="ZGMD3YCJVSqUdgtJMxU0-251" value="" style="ellipse;whiteSpace=wrap;html=1;aspect=fixed;fillColor=#ffe6cc;strokeColor=#d79b00;" parent="1" vertex="1">
          <mxGeometry x="900" y="550" width="10" height="10" as="geometry" />
        </mxCell>
        <mxCell id="ZGMD3YCJVSqUdgtJMxU0-255" value="" style="edgeStyle=orthogonalEdgeStyle;rounded=0;orthogonalLoop=1;jettySize=auto;html=1;entryX=0;entryY=0.5;entryDx=0;entryDy=0;fillColor=#ffe6cc;strokeColor=#d79b00;strokeWidth=2;endArrow=none;endFill=0;" parent="1" source="ZGMD3YCJVSqUdgtJMxU0-34" target="ZGMD3YCJVSqUdgtJMxU0-254" edge="1">
          <mxGeometry relative="1" as="geometry">
            <mxPoint x="720" y="535" as="sourcePoint" />
            <mxPoint x="1840" y="510" as="targetPoint" />
            <Array as="points" />
          </mxGeometry>
        </mxCell>
        <mxCell id="ZGMD3YCJVSqUdgtJMxU0-256" style="edgeStyle=orthogonalEdgeStyle;rounded=0;orthogonalLoop=1;jettySize=auto;html=1;entryX=0.5;entryY=1;entryDx=0;entryDy=0;jumpStyle=gap;endArrow=none;endFill=0;strokeWidth=2;fillColor=#ffe6cc;strokeColor=#d79b00;" parent="1" source="ZGMD3YCJVSqUdgtJMxU0-254" target="ZGMD3YCJVSqUdgtJMxU0-320" edge="1">
          <mxGeometry relative="1" as="geometry">
            <Array as="points" />
          </mxGeometry>
        </mxCell>
        <mxCell id="ZGMD3YCJVSqUdgtJMxU0-254" value="" style="ellipse;whiteSpace=wrap;html=1;aspect=fixed;fillColor=#ffe6cc;strokeColor=#d79b00;" parent="1" vertex="1">
          <mxGeometry x="880" y="530" width="10" height="10" as="geometry" />
        </mxCell>
        <mxCell id="ZGMD3YCJVSqUdgtJMxU0-258" value="" style="edgeStyle=orthogonalEdgeStyle;rounded=0;orthogonalLoop=1;jettySize=auto;html=1;entryX=0;entryY=0.5;entryDx=0;entryDy=0;fillColor=#f8cecc;strokeColor=#b85450;strokeWidth=2;endArrow=none;endFill=0;" parent="1" source="ZGMD3YCJVSqUdgtJMxU0-33" target="ZGMD3YCJVSqUdgtJMxU0-257" edge="1">
          <mxGeometry relative="1" as="geometry">
            <mxPoint x="720" y="515" as="sourcePoint" />
            <mxPoint x="1615" y="405" as="targetPoint" />
            <Array as="points" />
          </mxGeometry>
        </mxCell>
        <mxCell id="ZGMD3YCJVSqUdgtJMxU0-259" style="edgeStyle=orthogonalEdgeStyle;rounded=0;orthogonalLoop=1;jettySize=auto;html=1;entryX=0;entryY=0.25;entryDx=0;entryDy=0;jumpStyle=gap;endArrow=none;endFill=0;exitX=1;exitY=0.5;exitDx=0;exitDy=0;" parent="1" source="ZGMD3YCJVSqUdgtJMxU0-300" target="ZGMD3YCJVSqUdgtJMxU0-216" edge="1">
          <mxGeometry relative="1" as="geometry">
            <Array as="points" />
          </mxGeometry>
        </mxCell>
        <mxCell id="ZGMD3YCJVSqUdgtJMxU0-257" value="" style="ellipse;whiteSpace=wrap;html=1;aspect=fixed;fillColor=#f8cecc;strokeColor=#b85450;" parent="1" vertex="1">
          <mxGeometry x="860" y="510" width="10" height="10" as="geometry" />
        </mxCell>
        <mxCell id="ZGMD3YCJVSqUdgtJMxU0-264" value="" style="edgeStyle=orthogonalEdgeStyle;rounded=0;orthogonalLoop=1;jettySize=auto;html=1;entryX=1;entryY=0.5;entryDx=0;entryDy=0;jumpStyle=gap;endArrow=none;endFill=0;" parent="1" target="ZGMD3YCJVSqUdgtJMxU0-263" edge="1">
          <mxGeometry relative="1" as="geometry">
            <mxPoint x="1249.94" y="170" as="targetPoint" />
            <mxPoint x="2155.022633363671" y="450.00068149786875" as="sourcePoint" />
            <Array as="points">
              <mxPoint x="2155" y="165" />
            </Array>
          </mxGeometry>
        </mxCell>
        <mxCell id="ZGMD3YCJVSqUdgtJMxU0-265" style="edgeStyle=orthogonalEdgeStyle;rounded=0;orthogonalLoop=1;jettySize=auto;html=1;entryX=0;entryY=0.5;entryDx=0;entryDy=0;exitX=0.5;exitY=1;exitDx=0;exitDy=0;jumpStyle=gap;endArrow=none;endFill=0;" parent="1" source="ZGMD3YCJVSqUdgtJMxU0-263" target="ZGMD3YCJVSqUdgtJMxU0-102" edge="1">
          <mxGeometry relative="1" as="geometry">
            <Array as="points">
              <mxPoint x="1295" y="425" />
            </Array>
          </mxGeometry>
        </mxCell>
        <mxCell id="ZGMD3YCJVSqUdgtJMxU0-263" value="" style="ellipse;whiteSpace=wrap;html=1;aspect=fixed;fillColor=#000000;" parent="1" vertex="1">
          <mxGeometry x="1290" y="160" width="10" height="10" as="geometry" />
        </mxCell>
        <mxCell id="ZGMD3YCJVSqUdgtJMxU0-271" style="edgeStyle=orthogonalEdgeStyle;rounded=0;orthogonalLoop=1;jettySize=auto;html=1;entryX=0.5;entryY=1;entryDx=0;entryDy=0;endArrow=none;endFill=0;fillColor=#d5e8d4;strokeColor=#82b366;strokeWidth=2;exitX=0.5;exitY=0;exitDx=0;exitDy=0;" parent="1" source="ZGMD3YCJVSqUdgtJMxU0-267" target="ZGMD3YCJVSqUdgtJMxU0-216" edge="1">
          <mxGeometry relative="1" as="geometry">
            <Array as="points">
              <mxPoint x="1126" y="345" />
              <mxPoint x="1205" y="345" />
            </Array>
          </mxGeometry>
        </mxCell>
        <mxCell id="ZGMD3YCJVSqUdgtJMxU0-267" value="" style="ellipse;whiteSpace=wrap;html=1;fillColor=#d5e8d4;strokeColor=#82b366;strokeWidth=2;" parent="1" vertex="1">
          <mxGeometry x="1121" y="393" width="10" height="10" as="geometry" />
        </mxCell>
        <mxCell id="ZGMD3YCJVSqUdgtJMxU0-272" value="" style="ellipse;whiteSpace=wrap;html=1;aspect=fixed;fillColor=#000000;" parent="1" vertex="1">
          <mxGeometry x="1595" y="285" width="10" height="10" as="geometry" />
        </mxCell>
        <mxCell id="ZGMD3YCJVSqUdgtJMxU0-275" value="" style="edgeStyle=orthogonalEdgeStyle;rounded=0;orthogonalLoop=1;jettySize=auto;html=1;entryX=0.5;entryY=0;entryDx=0;entryDy=0;exitX=0.5;exitY=1;exitDx=0;exitDy=0;endArrow=none;endFill=0;" parent="1" source="ZGMD3YCJVSqUdgtJMxU0-272" target="ZGMD3YCJVSqUdgtJMxU0-274" edge="1">
          <mxGeometry relative="1" as="geometry">
            <mxPoint x="1600" y="295" as="sourcePoint" />
            <mxPoint x="1655" y="390" as="targetPoint" />
            <Array as="points" />
          </mxGeometry>
        </mxCell>
        <mxCell id="ZGMD3YCJVSqUdgtJMxU0-274" value="" style="ellipse;whiteSpace=wrap;html=1;aspect=fixed;fillColor=#000000;" parent="1" vertex="1">
          <mxGeometry x="1595" y="385" width="10" height="10" as="geometry" />
        </mxCell>
        <mxCell id="ZGMD3YCJVSqUdgtJMxU0-276" value="" style="verticalLabelPosition=bottom;shadow=0;dashed=0;align=center;html=1;verticalAlign=top;shape=mxgraph.electrical.logic_gates.logic_gate;operation=or;" parent="1" vertex="1">
          <mxGeometry x="2310" y="470" width="60" height="60" as="geometry" />
        </mxCell>
        <mxCell id="ZGMD3YCJVSqUdgtJMxU0-277" style="edgeStyle=orthogonalEdgeStyle;rounded=0;orthogonalLoop=1;jettySize=auto;html=1;entryX=0;entryY=0.25;entryDx=0;entryDy=0;entryPerimeter=0;endArrow=none;endFill=0;" parent="1" source="ZGMD3YCJVSqUdgtJMxU0-204" target="ZGMD3YCJVSqUdgtJMxU0-276" edge="1">
          <mxGeometry relative="1" as="geometry" />
        </mxCell>
        <mxCell id="ZGMD3YCJVSqUdgtJMxU0-278" style="edgeStyle=orthogonalEdgeStyle;rounded=0;orthogonalLoop=1;jettySize=auto;html=1;entryX=0;entryY=0.75;entryDx=0;entryDy=0;entryPerimeter=0;endArrow=none;endFill=0;" parent="1" source="ZGMD3YCJVSqUdgtJMxU0-202" target="ZGMD3YCJVSqUdgtJMxU0-276" edge="1">
          <mxGeometry relative="1" as="geometry" />
        </mxCell>
        <mxCell id="ZGMD3YCJVSqUdgtJMxU0-279" value="" style="verticalLabelPosition=bottom;shadow=0;dashed=0;align=center;html=1;verticalAlign=top;shape=mxgraph.electrical.logic_gates.logic_gate;operation=or;" parent="1" vertex="1">
          <mxGeometry x="2390" y="485" width="60" height="60" as="geometry" />
        </mxCell>
        <mxCell id="ZGMD3YCJVSqUdgtJMxU0-280" style="edgeStyle=orthogonalEdgeStyle;rounded=0;orthogonalLoop=1;jettySize=auto;html=1;entryX=0;entryY=0.25;entryDx=0;entryDy=0;entryPerimeter=0;endArrow=none;endFill=0;" parent="1" source="ZGMD3YCJVSqUdgtJMxU0-276" target="ZGMD3YCJVSqUdgtJMxU0-279" edge="1">
          <mxGeometry relative="1" as="geometry" />
        </mxCell>
        <mxCell id="ZGMD3YCJVSqUdgtJMxU0-281" style="edgeStyle=orthogonalEdgeStyle;rounded=0;orthogonalLoop=1;jettySize=auto;html=1;exitX=1;exitY=0.5;exitDx=0;exitDy=0;exitPerimeter=0;entryX=0;entryY=0.75;entryDx=0;entryDy=0;entryPerimeter=0;endArrow=none;endFill=0;" parent="1" source="ZGMD3YCJVSqUdgtJMxU0-205" target="ZGMD3YCJVSqUdgtJMxU0-279" edge="1">
          <mxGeometry relative="1" as="geometry">
            <Array as="points">
              <mxPoint x="2380" y="545" />
              <mxPoint x="2380" y="530" />
            </Array>
          </mxGeometry>
        </mxCell>
        <mxCell id="ZGMD3YCJVSqUdgtJMxU0-289" style="edgeStyle=orthogonalEdgeStyle;rounded=0;orthogonalLoop=1;jettySize=auto;html=1;entryX=0;entryY=0.5;entryDx=0;entryDy=0;endArrow=none;endFill=0;" parent="1" source="ZGMD3YCJVSqUdgtJMxU0-286" target="ZGMD3YCJVSqUdgtJMxU0-128" edge="1">
          <mxGeometry relative="1" as="geometry" />
        </mxCell>
        <mxCell id="ZGMD3YCJVSqUdgtJMxU0-286" value="" style="group;movable=1;resizable=1;rotatable=1;deletable=1;editable=1;locked=0;connectable=1;" parent="1" vertex="1" connectable="0">
          <mxGeometry x="1280" y="929" width="30" height="20" as="geometry" />
        </mxCell>
        <mxCell id="ZGMD3YCJVSqUdgtJMxU0-287" value="" style="triangle;whiteSpace=wrap;html=1;movable=0;resizable=0;rotatable=0;deletable=0;editable=0;locked=1;connectable=0;" parent="ZGMD3YCJVSqUdgtJMxU0-286" vertex="1">
          <mxGeometry width="20" height="20" as="geometry" />
        </mxCell>
        <mxCell id="ZGMD3YCJVSqUdgtJMxU0-288" value="" style="ellipse;whiteSpace=wrap;html=1;aspect=fixed;movable=0;resizable=0;rotatable=0;deletable=0;editable=0;locked=1;connectable=0;" parent="ZGMD3YCJVSqUdgtJMxU0-286" vertex="1">
          <mxGeometry x="20" y="5" width="10" height="10" as="geometry" />
        </mxCell>
        <mxCell id="ZGMD3YCJVSqUdgtJMxU0-291" value="" style="edgeStyle=orthogonalEdgeStyle;rounded=0;orthogonalLoop=1;jettySize=auto;html=1;entryX=0.5;entryY=0;entryDx=0;entryDy=0;jumpStyle=gap;exitX=1;exitY=0.5;exitDx=0;exitDy=0;exitPerimeter=0;endArrow=none;endFill=0;" parent="1" source="C50ntAI8cyt6T5EpAr7G-20" target="ZGMD3YCJVSqUdgtJMxU0-290" edge="1">
          <mxGeometry relative="1" as="geometry">
            <mxPoint x="1340" y="909" as="targetPoint" />
            <mxPoint x="2450" y="515" as="sourcePoint" />
            <Array as="points" />
          </mxGeometry>
        </mxCell>
        <mxCell id="ZGMD3YCJVSqUdgtJMxU0-292" style="edgeStyle=orthogonalEdgeStyle;rounded=0;orthogonalLoop=1;jettySize=auto;html=1;entryX=0;entryY=0.5;entryDx=0;entryDy=0;endArrow=none;endFill=0;" parent="1" source="ZGMD3YCJVSqUdgtJMxU0-290" target="ZGMD3YCJVSqUdgtJMxU0-286" edge="1">
          <mxGeometry relative="1" as="geometry">
            <Array as="points">
              <mxPoint x="1249" y="939" />
            </Array>
          </mxGeometry>
        </mxCell>
        <mxCell id="ZGMD3YCJVSqUdgtJMxU0-290" value="" style="ellipse;whiteSpace=wrap;html=1;aspect=fixed;fillColor=#000000;strokeColor=#000000;" parent="1" vertex="1">
          <mxGeometry x="1244" y="904" width="10" height="10" as="geometry" />
        </mxCell>
        <mxCell id="ZGMD3YCJVSqUdgtJMxU0-294" value="" style="edgeStyle=orthogonalEdgeStyle;rounded=0;orthogonalLoop=1;jettySize=auto;html=1;entryX=0.5;entryY=1;entryDx=0;entryDy=0;endArrow=none;endFill=0;jumpStyle=gap;" parent="1" source="ZGMD3YCJVSqUdgtJMxU0-29" target="ZGMD3YCJVSqUdgtJMxU0-293" edge="1">
          <mxGeometry relative="1" as="geometry">
            <mxPoint x="720" y="475" as="sourcePoint" />
            <mxPoint x="1190" y="280" as="targetPoint" />
            <Array as="points">
              <mxPoint x="825" y="475" />
            </Array>
          </mxGeometry>
        </mxCell>
        <mxCell id="ZGMD3YCJVSqUdgtJMxU0-293" value="" style="whiteSpace=wrap;html=1;aspect=fixed;" parent="1" vertex="1">
          <mxGeometry x="815" y="270" width="20" height="20" as="geometry" />
        </mxCell>
        <mxCell id="ZGMD3YCJVSqUdgtJMxU0-296" value="" style="edgeStyle=orthogonalEdgeStyle;rounded=0;orthogonalLoop=1;jettySize=auto;html=1;exitX=1;exitY=0.5;exitDx=0;exitDy=0;entryX=0.5;entryY=1;entryDx=0;entryDy=0;endArrow=none;endFill=0;jumpStyle=gap;" parent="1" source="ZGMD3YCJVSqUdgtJMxU0-30" target="ZGMD3YCJVSqUdgtJMxU0-295" edge="1">
          <mxGeometry relative="1" as="geometry">
            <mxPoint x="1190" y="280" as="targetPoint" />
            <mxPoint x="720" y="495" as="sourcePoint" />
            <Array as="points">
              <mxPoint x="845" y="495" />
            </Array>
          </mxGeometry>
        </mxCell>
        <mxCell id="ZGMD3YCJVSqUdgtJMxU0-299" value="" style="edgeStyle=orthogonalEdgeStyle;rounded=0;orthogonalLoop=1;jettySize=auto;html=1;entryX=0.5;entryY=1;entryDx=0;entryDy=0;jumpStyle=gap;endArrow=none;endFill=0;fillColor=#f8cecc;strokeColor=#b85450;strokeWidth=2;" parent="1" source="ZGMD3YCJVSqUdgtJMxU0-257" target="ZGMD3YCJVSqUdgtJMxU0-297" edge="1">
          <mxGeometry relative="1" as="geometry">
            <mxPoint x="865" y="510" as="sourcePoint" />
            <mxPoint x="1190" y="280" as="targetPoint" />
            <Array as="points" />
          </mxGeometry>
        </mxCell>
        <mxCell id="ZGMD3YCJVSqUdgtJMxU0-297" value="" style="whiteSpace=wrap;html=1;aspect=fixed;" parent="1" vertex="1">
          <mxGeometry x="855" y="270" width="20" height="20" as="geometry" />
        </mxCell>
        <mxCell id="ZGMD3YCJVSqUdgtJMxU0-301" value="" style="edgeStyle=orthogonalEdgeStyle;rounded=0;orthogonalLoop=1;jettySize=auto;html=1;entryX=0.5;entryY=1;entryDx=0;entryDy=0;jumpStyle=gap;endArrow=none;endFill=0;strokeWidth=2;fillColor=#e1d5e7;strokeColor=#9673a6;" parent="1" source="ZGMD3YCJVSqUdgtJMxU0-222" target="ZGMD3YCJVSqUdgtJMxU0-300" edge="1">
          <mxGeometry relative="1" as="geometry">
            <mxPoint x="1190" y="280" as="targetPoint" />
            <mxPoint x="1105" y="750" as="sourcePoint" />
            <Array as="points" />
          </mxGeometry>
        </mxCell>
        <mxCell id="ZGMD3YCJVSqUdgtJMxU0-300" value="" style="whiteSpace=wrap;html=1;aspect=fixed;" parent="1" vertex="1">
          <mxGeometry x="1095" y="270" width="20" height="20" as="geometry" />
        </mxCell>
        <mxCell id="ZGMD3YCJVSqUdgtJMxU0-303" value="" style="edgeStyle=orthogonalEdgeStyle;rounded=0;orthogonalLoop=1;jettySize=auto;html=1;entryX=0;entryY=0.25;entryDx=0;entryDy=0;jumpStyle=gap;endArrow=none;endFill=0;" parent="1" source="ZGMD3YCJVSqUdgtJMxU0-320" target="ZGMD3YCJVSqUdgtJMxU0-302" edge="1">
          <mxGeometry relative="1" as="geometry">
            <mxPoint x="880" y="280" as="sourcePoint" />
            <mxPoint x="1190" y="280" as="targetPoint" />
            <Array as="points" />
          </mxGeometry>
        </mxCell>
        <mxCell id="ZGMD3YCJVSqUdgtJMxU0-302" value="" style="whiteSpace=wrap;html=1;aspect=fixed;" parent="1" vertex="1">
          <mxGeometry x="1075" y="270" width="20" height="20" as="geometry" />
        </mxCell>
        <mxCell id="ZGMD3YCJVSqUdgtJMxU0-305" value="" style="whiteSpace=wrap;html=1;aspect=fixed;" parent="1" vertex="1">
          <mxGeometry x="1035" y="270" width="20" height="20" as="geometry" />
        </mxCell>
        <mxCell id="ZGMD3YCJVSqUdgtJMxU0-307" value="" style="whiteSpace=wrap;html=1;aspect=fixed;" parent="1" vertex="1">
          <mxGeometry x="1055" y="270" width="20" height="20" as="geometry" />
        </mxCell>
        <mxCell id="ZGMD3YCJVSqUdgtJMxU0-308" value="" style="whiteSpace=wrap;html=1;aspect=fixed;" parent="1" vertex="1">
          <mxGeometry x="1015" y="270" width="20" height="20" as="geometry" />
        </mxCell>
        <mxCell id="ZGMD3YCJVSqUdgtJMxU0-310" value="" style="whiteSpace=wrap;html=1;aspect=fixed;" parent="1" vertex="1">
          <mxGeometry x="995" y="270" width="20" height="20" as="geometry" />
        </mxCell>
        <mxCell id="ZGMD3YCJVSqUdgtJMxU0-312" value="" style="edgeStyle=orthogonalEdgeStyle;rounded=0;orthogonalLoop=1;jettySize=auto;html=1;entryX=0.5;entryY=1;entryDx=0;entryDy=0;jumpStyle=gap;endArrow=none;endFill=0;fillColor=#ffe6cc;strokeColor=#d79b00;strokeWidth=2;" parent="1" source="ZGMD3YCJVSqUdgtJMxU0-239" target="ZGMD3YCJVSqUdgtJMxU0-311" edge="1">
          <mxGeometry relative="1" as="geometry">
            <mxPoint x="985" y="630" as="sourcePoint" />
            <mxPoint x="1190" y="280" as="targetPoint" />
            <Array as="points" />
          </mxGeometry>
        </mxCell>
        <mxCell id="ZGMD3YCJVSqUdgtJMxU0-311" value="" style="whiteSpace=wrap;html=1;aspect=fixed;" parent="1" vertex="1">
          <mxGeometry x="975" y="270" width="20" height="20" as="geometry" />
        </mxCell>
        <mxCell id="ZGMD3YCJVSqUdgtJMxU0-316" value="" style="edgeStyle=orthogonalEdgeStyle;rounded=0;orthogonalLoop=1;jettySize=auto;html=1;" parent="1" source="ZGMD3YCJVSqUdgtJMxU0-313" target="ZGMD3YCJVSqUdgtJMxU0-297" edge="1">
          <mxGeometry relative="1" as="geometry" />
        </mxCell>
        <mxCell id="ZGMD3YCJVSqUdgtJMxU0-313" value="" style="whiteSpace=wrap;html=1;aspect=fixed;" parent="1" vertex="1">
          <mxGeometry x="955" y="270" width="20" height="20" as="geometry" />
        </mxCell>
        <mxCell id="ZGMD3YCJVSqUdgtJMxU0-315" value="" style="edgeStyle=orthogonalEdgeStyle;rounded=0;orthogonalLoop=1;jettySize=auto;html=1;entryX=0.5;entryY=1;entryDx=0;entryDy=0;exitX=0.5;exitY=0;exitDx=0;exitDy=0;jumpStyle=gap;endArrow=none;endFill=0;fillColor=#ffe6cc;strokeColor=#d79b00;strokeWidth=2;" parent="1" source="ZGMD3YCJVSqUdgtJMxU0-245" target="ZGMD3YCJVSqUdgtJMxU0-314" edge="1">
          <mxGeometry relative="1" as="geometry">
            <mxPoint x="945" y="590" as="sourcePoint" />
            <mxPoint x="1190" y="280" as="targetPoint" />
            <Array as="points" />
          </mxGeometry>
        </mxCell>
        <mxCell id="ZGMD3YCJVSqUdgtJMxU0-314" value="" style="whiteSpace=wrap;html=1;aspect=fixed;" parent="1" vertex="1">
          <mxGeometry x="935" y="270" width="20" height="20" as="geometry" />
        </mxCell>
        <mxCell id="ZGMD3YCJVSqUdgtJMxU0-317" value="" style="whiteSpace=wrap;html=1;aspect=fixed;" parent="1" vertex="1">
          <mxGeometry x="915" y="270" width="20" height="20" as="geometry" />
        </mxCell>
        <mxCell id="ZGMD3YCJVSqUdgtJMxU0-319" value="" style="edgeStyle=orthogonalEdgeStyle;rounded=0;orthogonalLoop=1;jettySize=auto;html=1;entryX=0.5;entryY=1;entryDx=0;entryDy=0;jumpStyle=gap;endArrow=none;endFill=0;fillColor=#ffe6cc;strokeColor=#d79b00;strokeWidth=2;" parent="1" source="ZGMD3YCJVSqUdgtJMxU0-251" target="ZGMD3YCJVSqUdgtJMxU0-318" edge="1">
          <mxGeometry relative="1" as="geometry">
            <mxPoint x="1190" y="280" as="targetPoint" />
            <mxPoint x="905" y="550" as="sourcePoint" />
            <Array as="points" />
          </mxGeometry>
        </mxCell>
        <mxCell id="ZGMD3YCJVSqUdgtJMxU0-318" value="" style="whiteSpace=wrap;html=1;aspect=fixed;" parent="1" vertex="1">
          <mxGeometry x="895" y="270" width="20" height="20" as="geometry" />
        </mxCell>
        <mxCell id="ZGMD3YCJVSqUdgtJMxU0-320" value="" style="whiteSpace=wrap;html=1;aspect=fixed;" parent="1" vertex="1">
          <mxGeometry x="875" y="270" width="20" height="20" as="geometry" />
        </mxCell>
        <mxCell id="ZGMD3YCJVSqUdgtJMxU0-295" value="" style="whiteSpace=wrap;html=1;aspect=fixed;" parent="1" vertex="1">
          <mxGeometry x="835" y="270" width="20" height="20" as="geometry" />
        </mxCell>
        <mxCell id="ZGMD3YCJVSqUdgtJMxU0-168" style="edgeStyle=orthogonalEdgeStyle;rounded=0;orthogonalLoop=1;jettySize=auto;html=1;endArrow=none;endFill=0;entryX=0;entryY=0.5;entryDx=0;entryDy=0;jumpStyle=gap;" parent="1" source="ZGMD3YCJVSqUdgtJMxU0-104" target="ZGMD3YCJVSqUdgtJMxU0-108" edge="1">
          <mxGeometry relative="1" as="geometry">
            <mxPoint x="1730" y="480" as="targetPoint" />
            <Array as="points">
              <mxPoint x="1560" y="425" />
              <mxPoint x="1560" y="450" />
            </Array>
          </mxGeometry>
        </mxCell>
        <mxCell id="ZGMD3YCJVSqUdgtJMxU0-164" style="edgeStyle=orthogonalEdgeStyle;rounded=0;orthogonalLoop=1;jettySize=auto;html=1;jumpStyle=gap;entryX=0;entryY=0.75;entryDx=0;entryDy=0;endArrow=none;endFill=0;exitX=1;exitY=0.5;exitDx=0;exitDy=0;" parent="1" source="ZGMD3YCJVSqUdgtJMxU0-136" target="ZGMD3YCJVSqUdgtJMxU0-95" edge="1">
          <mxGeometry relative="1" as="geometry">
            <mxPoint x="720" y="367.0526315789475" as="sourcePoint" />
            <mxPoint x="1580" y="425" as="targetPoint" />
            <Array as="points">
              <mxPoint x="800" y="415" />
              <mxPoint x="800" y="225" />
              <mxPoint x="1580" y="225" />
              <mxPoint x="1580" y="410" />
            </Array>
          </mxGeometry>
        </mxCell>
        <mxCell id="C50ntAI8cyt6T5EpAr7G-1" value="" style="group;movable=1;resizable=1;rotatable=1;deletable=1;editable=1;locked=0;connectable=1;" vertex="1" connectable="0" parent="1">
          <mxGeometry x="1150" y="387" width="30" height="20" as="geometry" />
        </mxCell>
        <mxCell id="C50ntAI8cyt6T5EpAr7G-2" value="" style="triangle;whiteSpace=wrap;html=1;movable=0;resizable=0;rotatable=0;deletable=0;editable=0;locked=1;connectable=0;" vertex="1" parent="C50ntAI8cyt6T5EpAr7G-1">
          <mxGeometry width="20" height="20" as="geometry" />
        </mxCell>
        <mxCell id="C50ntAI8cyt6T5EpAr7G-3" value="" style="ellipse;whiteSpace=wrap;html=1;aspect=fixed;movable=0;resizable=0;rotatable=0;deletable=0;editable=0;locked=1;connectable=0;" vertex="1" parent="C50ntAI8cyt6T5EpAr7G-1">
          <mxGeometry x="20" y="5" width="10" height="10" as="geometry" />
        </mxCell>
        <mxCell id="C50ntAI8cyt6T5EpAr7G-8" value="" style="edgeStyle=orthogonalEdgeStyle;rounded=0;orthogonalLoop=1;jettySize=auto;html=1;entryX=0;entryY=0.25;entryDx=0;entryDy=0;endArrow=none;endFill=0;exitX=1;exitY=0.5;exitDx=0;exitDy=0;entryPerimeter=0;" edge="1" parent="1" source="C50ntAI8cyt6T5EpAr7G-1" target="ZGMD3YCJVSqUdgtJMxU0-177">
          <mxGeometry relative="1" as="geometry">
            <mxPoint x="1180" y="397" as="sourcePoint" />
            <mxPoint x="1200" y="397" as="targetPoint" />
            <Array as="points" />
          </mxGeometry>
        </mxCell>
        <mxCell id="C50ntAI8cyt6T5EpAr7G-13" value="" style="edgeStyle=orthogonalEdgeStyle;rounded=0;orthogonalLoop=1;jettySize=auto;html=1;endArrow=none;endFill=0;fillColor=#d5e8d4;strokeColor=#82b366;strokeWidth=2;entryX=0.5;entryY=1;entryDx=0;entryDy=0;exitX=1;exitY=0.5;exitDx=0;exitDy=0;" edge="1" parent="1" source="ZGMD3YCJVSqUdgtJMxU0-28" target="C50ntAI8cyt6T5EpAr7G-12">
          <mxGeometry relative="1" as="geometry">
            <mxPoint x="715" y="454.9985714285714" as="sourcePoint" />
            <mxPoint x="1126" y="403" as="targetPoint" />
            <Array as="points">
              <mxPoint x="1126" y="455" />
            </Array>
          </mxGeometry>
        </mxCell>
        <mxCell id="C50ntAI8cyt6T5EpAr7G-14" style="edgeStyle=orthogonalEdgeStyle;rounded=0;orthogonalLoop=1;jettySize=auto;html=1;entryX=0;entryY=0.25;entryDx=0;entryDy=0;entryPerimeter=0;jumpStyle=gap;endArrow=none;endFill=0;fillColor=#d5e8d4;strokeColor=#82b366;strokeWidth=2;exitX=1;exitY=0.5;exitDx=0;exitDy=0;" edge="1" parent="1" source="C50ntAI8cyt6T5EpAr7G-17" target="C50ntAI8cyt6T5EpAr7G-15">
          <mxGeometry relative="1" as="geometry">
            <mxPoint x="1240" y="435" as="targetPoint" />
            <Array as="points">
              <mxPoint x="1210" y="690" />
            </Array>
          </mxGeometry>
        </mxCell>
        <mxCell id="C50ntAI8cyt6T5EpAr7G-12" value="" style="ellipse;whiteSpace=wrap;html=1;fillColor=#d5e8d4;strokeColor=#82b366;strokeWidth=2;" vertex="1" parent="1">
          <mxGeometry x="1121" y="430" width="10" height="10" as="geometry" />
        </mxCell>
        <mxCell id="C50ntAI8cyt6T5EpAr7G-16" value="" style="edgeStyle=orthogonalEdgeStyle;rounded=0;orthogonalLoop=1;jettySize=auto;html=1;entryX=0;entryY=0.75;entryDx=0;entryDy=0;fillColor=#dae8fc;strokeColor=#6c8ebf;strokeWidth=2;endArrow=none;endFill=0;entryPerimeter=0;" edge="1" parent="1" source="ZGMD3YCJVSqUdgtJMxU0-42" target="C50ntAI8cyt6T5EpAr7G-15">
          <mxGeometry relative="1" as="geometry">
            <mxPoint x="2600" y="510" as="targetPoint" />
            <Array as="points">
              <mxPoint x="1190" y="695" />
              <mxPoint x="1190" y="700" />
            </Array>
            <mxPoint x="720" y="695" as="sourcePoint" />
          </mxGeometry>
        </mxCell>
        <mxCell id="C50ntAI8cyt6T5EpAr7G-15" value="" style="verticalLabelPosition=bottom;shadow=0;dashed=0;align=center;html=1;verticalAlign=top;shape=mxgraph.electrical.logic_gates.logic_gate;operation=and;strokeWidth=1;" vertex="1" parent="1">
          <mxGeometry x="1260" y="685" width="30" height="20" as="geometry" />
        </mxCell>
        <mxCell id="C50ntAI8cyt6T5EpAr7G-18" value="" style="edgeStyle=orthogonalEdgeStyle;rounded=0;orthogonalLoop=1;jettySize=auto;html=1;entryX=0.5;entryY=0;entryDx=0;entryDy=0;jumpStyle=gap;endArrow=none;endFill=0;fillColor=#d5e8d4;strokeColor=#82b366;strokeWidth=2;" edge="1" parent="1" source="C50ntAI8cyt6T5EpAr7G-12" target="C50ntAI8cyt6T5EpAr7G-17">
          <mxGeometry relative="1" as="geometry">
            <mxPoint x="1260" y="690" as="targetPoint" />
            <mxPoint x="1131" y="435" as="sourcePoint" />
            <Array as="points">
              <mxPoint x="1205" y="435" />
            </Array>
          </mxGeometry>
        </mxCell>
        <mxCell id="C50ntAI8cyt6T5EpAr7G-19" style="edgeStyle=orthogonalEdgeStyle;rounded=0;orthogonalLoop=1;jettySize=auto;html=1;exitX=0.5;exitY=1;exitDx=0;exitDy=0;entryX=0;entryY=0.75;entryDx=0;entryDy=0;entryPerimeter=0;fillColor=#d5e8d4;strokeColor=#82b366;endArrow=none;endFill=0;strokeWidth=2;" edge="1" parent="1" source="C50ntAI8cyt6T5EpAr7G-17" target="C50ntAI8cyt6T5EpAr7G-20">
          <mxGeometry relative="1" as="geometry">
            <mxPoint x="1200" y="780" as="targetPoint" />
            <Array as="points">
              <mxPoint x="1205" y="780" />
              <mxPoint x="1244" y="780" />
            </Array>
          </mxGeometry>
        </mxCell>
        <mxCell id="C50ntAI8cyt6T5EpAr7G-17" value="" style="ellipse;whiteSpace=wrap;html=1;fillColor=#d5e8d4;strokeColor=#82b366;strokeWidth=2;" vertex="1" parent="1">
          <mxGeometry x="1200" y="685" width="10" height="10" as="geometry" />
        </mxCell>
        <mxCell id="C50ntAI8cyt6T5EpAr7G-21" value="" style="edgeStyle=orthogonalEdgeStyle;rounded=0;orthogonalLoop=1;jettySize=auto;html=1;entryX=0;entryY=0.25;entryDx=0;entryDy=0;jumpStyle=gap;exitX=1;exitY=0.5;exitDx=0;exitDy=0;exitPerimeter=0;endArrow=none;endFill=0;entryPerimeter=0;" edge="1" parent="1" source="ZGMD3YCJVSqUdgtJMxU0-279" target="C50ntAI8cyt6T5EpAr7G-20">
          <mxGeometry relative="1" as="geometry">
            <mxPoint x="1249" y="904" as="targetPoint" />
            <mxPoint x="2450" y="515" as="sourcePoint" />
            <Array as="points">
              <mxPoint x="2480" y="515" />
              <mxPoint x="2480" y="775" />
              <mxPoint x="1254" y="775" />
            </Array>
          </mxGeometry>
        </mxCell>
        <mxCell id="C50ntAI8cyt6T5EpAr7G-20" value="" style="verticalLabelPosition=bottom;shadow=0;dashed=0;align=center;html=1;verticalAlign=top;shape=mxgraph.electrical.logic_gates.logic_gate;operation=and;strokeWidth=1;direction=south;" vertex="1" parent="1">
          <mxGeometry x="1239" y="785" width="20" height="30" as="geometry" />
        </mxCell>
        <mxCell id="ZGMD3YCJVSqUdgtJMxU0-203" style="edgeStyle=orthogonalEdgeStyle;rounded=0;orthogonalLoop=1;jettySize=auto;html=1;entryX=0;entryY=0.75;entryDx=0;entryDy=0;entryPerimeter=0;endArrow=none;endFill=0;fillColor=#e1d5e7;strokeColor=#9673a6;strokeWidth=2;jumpStyle=gap;" parent="1" source="ZGMD3YCJVSqUdgtJMxU0-228" target="ZGMD3YCJVSqUdgtJMxU0-202" edge="1">
          <mxGeometry relative="1" as="geometry">
            <mxPoint x="2460" y="715" as="targetPoint" />
            <Array as="points">
              <mxPoint x="2220" y="715" />
              <mxPoint x="2220" y="520" />
            </Array>
          </mxGeometry>
        </mxCell>
        <mxCell id="ZGMD3YCJVSqUdgtJMxU0-206" style="edgeStyle=orthogonalEdgeStyle;rounded=0;orthogonalLoop=1;jettySize=auto;html=1;entryX=0;entryY=0.75;entryDx=0;entryDy=0;entryPerimeter=0;endArrow=none;endFill=0;fillColor=#e1d5e7;strokeColor=#9673a6;strokeWidth=2;jumpStyle=gap;" parent="1" source="ZGMD3YCJVSqUdgtJMxU0-224" target="ZGMD3YCJVSqUdgtJMxU0-204" edge="1">
          <mxGeometry relative="1" as="geometry">
            <mxPoint x="2220" y="735" as="targetPoint" />
            <Array as="points">
              <mxPoint x="2230" y="735" />
              <mxPoint x="2230" y="490" />
            </Array>
          </mxGeometry>
        </mxCell>
        <mxCell id="ZGMD3YCJVSqUdgtJMxU0-207" style="edgeStyle=orthogonalEdgeStyle;rounded=0;orthogonalLoop=1;jettySize=auto;html=1;entryX=0;entryY=0.75;entryDx=0;entryDy=0;entryPerimeter=0;endArrow=none;endFill=0;fillColor=#e1d5e7;strokeColor=#9673a6;strokeWidth=2;jumpStyle=gap;" parent="1" source="ZGMD3YCJVSqUdgtJMxU0-222" target="ZGMD3YCJVSqUdgtJMxU0-205" edge="1">
          <mxGeometry relative="1" as="geometry">
            <mxPoint x="950" y="765" as="targetPoint" />
            <Array as="points">
              <mxPoint x="2240" y="755" />
              <mxPoint x="2240" y="550" />
            </Array>
          </mxGeometry>
        </mxCell>
        <mxCell id="ZGMD3YCJVSqUdgtJMxU0-138" style="edgeStyle=orthogonalEdgeStyle;rounded=0;orthogonalLoop=1;jettySize=auto;html=1;entryX=0;entryY=0.5;entryDx=0;entryDy=0;jumpStyle=gap;exitX=0.5;exitY=1;exitDx=0;exitDy=0;endArrow=none;endFill=0;" parent="1" source="ZGMD3YCJVSqUdgtJMxU0-274" target="ZGMD3YCJVSqUdgtJMxU0-124" edge="1">
          <mxGeometry relative="1" as="geometry">
            <mxPoint x="1270" y="705" as="targetPoint" />
            <mxPoint x="1550" y="345" as="sourcePoint" />
            <Array as="points">
              <mxPoint x="1600" y="795" />
              <mxPoint x="1270" y="795" />
              <mxPoint x="1270" y="879" />
            </Array>
          </mxGeometry>
        </mxCell>
        <mxCell id="C50ntAI8cyt6T5EpAr7G-23" value="" style="edgeStyle=orthogonalEdgeStyle;rounded=0;orthogonalLoop=1;jettySize=auto;html=1;entryX=0;entryY=0.25;entryDx=0;entryDy=0;entryPerimeter=0;endArrow=none;endFill=0;strokeWidth=1;jumpStyle=gap;" edge="1" parent="1" source="ZGMD3YCJVSqUdgtJMxU0-188" target="C50ntAI8cyt6T5EpAr7G-22">
          <mxGeometry relative="1" as="geometry">
            <mxPoint x="2260" y="540" as="targetPoint" />
            <mxPoint x="2140" y="540" as="sourcePoint" />
          </mxGeometry>
        </mxCell>
        <mxCell id="C50ntAI8cyt6T5EpAr7G-22" value="" style="verticalLabelPosition=bottom;shadow=0;dashed=0;align=center;html=1;verticalAlign=top;shape=mxgraph.electrical.logic_gates.logic_gate;operation=and;strokeWidth=1;" vertex="1" parent="1">
          <mxGeometry x="2170" y="530" width="30" height="20" as="geometry" />
        </mxCell>
        <mxCell id="C50ntAI8cyt6T5EpAr7G-24" value="" style="group;movable=1;resizable=1;rotatable=1;deletable=1;editable=1;locked=0;connectable=1;" vertex="1" connectable="0" parent="1">
          <mxGeometry x="2120" y="560" width="30" height="20" as="geometry" />
        </mxCell>
        <mxCell id="C50ntAI8cyt6T5EpAr7G-25" value="" style="triangle;whiteSpace=wrap;html=1;movable=0;resizable=0;rotatable=0;deletable=0;editable=0;locked=1;connectable=0;" vertex="1" parent="C50ntAI8cyt6T5EpAr7G-24">
          <mxGeometry width="20" height="20" as="geometry" />
        </mxCell>
        <mxCell id="C50ntAI8cyt6T5EpAr7G-26" value="" style="ellipse;whiteSpace=wrap;html=1;aspect=fixed;movable=0;resizable=0;rotatable=0;deletable=0;editable=0;locked=1;connectable=0;" vertex="1" parent="C50ntAI8cyt6T5EpAr7G-24">
          <mxGeometry x="20" y="5" width="10" height="10" as="geometry" />
        </mxCell>
        <mxCell id="C50ntAI8cyt6T5EpAr7G-27" style="edgeStyle=orthogonalEdgeStyle;rounded=0;orthogonalLoop=1;jettySize=auto;html=1;entryX=0;entryY=0.75;entryDx=0;entryDy=0;entryPerimeter=0;endArrow=none;endFill=0;" edge="1" parent="1" source="C50ntAI8cyt6T5EpAr7G-24" target="C50ntAI8cyt6T5EpAr7G-22">
          <mxGeometry relative="1" as="geometry">
            <Array as="points">
              <mxPoint x="2160" y="570" />
              <mxPoint x="2160" y="545" />
            </Array>
          </mxGeometry>
        </mxCell>
        <mxCell id="C50ntAI8cyt6T5EpAr7G-29" value="" style="edgeStyle=orthogonalEdgeStyle;rounded=0;orthogonalLoop=1;jettySize=auto;html=1;entryX=0;entryY=0.5;entryDx=0;entryDy=0;endArrow=none;endFill=0;" edge="1" parent="1" source="ZGMD3YCJVSqUdgtJMxU0-116" target="ZGMD3YCJVSqUdgtJMxU0-213">
          <mxGeometry relative="1" as="geometry">
            <mxPoint x="2060" y="450" as="sourcePoint" />
            <mxPoint x="2080" y="450" as="targetPoint" />
          </mxGeometry>
        </mxCell>
        <mxCell id="C50ntAI8cyt6T5EpAr7G-30" value="" style="edgeStyle=orthogonalEdgeStyle;rounded=0;orthogonalLoop=1;jettySize=auto;html=1;entryX=0;entryY=0.5;entryDx=0;entryDy=0;endArrow=none;endFill=0;exitX=0.5;exitY=1;exitDx=0;exitDy=0;" edge="1" parent="1" source="C50ntAI8cyt6T5EpAr7G-31" target="C50ntAI8cyt6T5EpAr7G-24">
          <mxGeometry relative="1" as="geometry">
            <mxPoint x="2085" y="490" as="sourcePoint" />
            <Array as="points">
              <mxPoint x="2085" y="570" />
            </Array>
          </mxGeometry>
        </mxCell>
        <mxCell id="C50ntAI8cyt6T5EpAr7G-33" value="" style="edgeStyle=orthogonalEdgeStyle;rounded=0;orthogonalLoop=1;jettySize=auto;html=1;entryX=0;entryY=0.25;entryDx=0;entryDy=0;entryPerimeter=0;endArrow=none;endFill=0;" edge="1" parent="1" source="ZGMD3YCJVSqUdgtJMxU0-117" target="C50ntAI8cyt6T5EpAr7G-31">
          <mxGeometry relative="1" as="geometry">
            <mxPoint x="2060" y="480" as="sourcePoint" />
            <mxPoint x="2260" y="480" as="targetPoint" />
            <Array as="points" />
          </mxGeometry>
        </mxCell>
        <mxCell id="C50ntAI8cyt6T5EpAr7G-31" value="" style="ellipse;whiteSpace=wrap;html=1;aspect=fixed;fillColor=#000000;" vertex="1" parent="1">
          <mxGeometry x="2080" y="475" width="10" height="10" as="geometry" />
        </mxCell>
      </root>
    </mxGraphModel>
  </diagram>
</mxfile>
